<?xml version="1.0" encoding="utf-8"?>
<!-- Generator: Adobe Illustrator 23.0.0, SVG Export Plug-In . SVG Version: 6.00 Build 0)  -->
<svg version="1.1" id="Capa_1" xmlns="http://www.w3.org/2000/svg" xmlns:xlink="http://www.w3.org/1999/xlink" x="0px" y="0px"
	 viewBox="0 0 500.2 235.1" style="enable-background:new 0 0 500.2 235.1;" xml:space="preserve">
<style type="text/css">
	.st0{fill:#FFFFFF;}
</style>
<g>
	<path class="st0" d="M225.9,29.6v15h16.7V49h-16.7v15.3h18.6V69h-24.3V25h24.3v4.6H225.9z"/>
	<path class="st0" d="M277.6,58.8h-19.3L254.6,69h-6.1l16.3-43.2h6.4L287.4,69h-6.1L277.6,58.8z M276,54.4l-8-22.2l-8,22.2H276z"/>
	<path class="st0" d="M319.4,63.4c-1,1.8-2.5,3.2-4.5,4.4c-2,1.1-4.5,1.7-7.5,1.7c-2.9,0-5.5-0.5-7.8-1.6s-4.1-2.5-5.4-4.4
		c-1.4-1.8-2.1-4-2.3-6.3h6c0.1,1.3,0.5,2.5,1.3,3.7c0.7,1.2,1.8,2.2,3.1,2.9c1.4,0.8,3,1.2,4.9,1.2c2.5,0,4.4-0.7,5.7-2
		c1.3-1.3,2-3,2-5.1c0-1.8-0.5-3.2-1.4-4.4s-2.1-2-3.5-2.7c-1.4-0.6-3.2-1.3-5.6-2.1c-2.8-0.9-5-1.8-6.7-2.6s-3.1-2-4.3-3.7
		c-1.2-1.6-1.8-3.8-1.8-6.4c0-2.3,0.5-4.3,1.6-6s2.7-3.1,4.7-4.1s4.5-1.4,7.3-1.4c4.3,0,7.8,1,10.3,3.1s4,4.8,4.4,8h-6.1
		c-0.3-1.8-1.2-3.3-2.7-4.6c-1.5-1.3-3.4-2-5.9-2c-2.3,0-4.1,0.6-5.5,1.8c-1.4,1.2-2.1,2.9-2.1,5c0,1.7,0.5,3.1,1.3,4.2
		c0.9,1.1,2,1.9,3.3,2.5s3.2,1.3,5.5,2c2.8,0.9,5.1,1.8,6.8,2.6c1.7,0.8,3.2,2.1,4.4,3.8c1.2,1.7,1.8,3.9,1.8,6.7
		C320.9,59.7,320.4,61.6,319.4,63.4z"/>
	<path class="st0" d="M362.9,58.6c-1.8,3.3-4.4,5.9-7.9,7.7c-3.5,1.8-7.6,2.7-12.5,2.7h-14V25h14c4.9,0,9,0.9,12.5,2.6
		s6.1,4.3,7.9,7.6s2.7,7.2,2.7,11.7S364.7,55.3,362.9,58.6z M355.2,59.4c3-3,4.5-7.1,4.5-12.5s-1.5-9.5-4.5-12.5s-7.4-4.5-13.2-4.5
		h-7.9v33.9h7.9C347.8,63.9,352.2,62.4,355.2,59.4z"/>
	<path class="st0" d="M253.7,88.7c3.6,2.7,5.8,6.4,6.7,11h-11.3c-0.8-1.6-1.9-2.8-3.4-3.8c-1.5-0.9-3.4-1.4-5.6-1.4
		c-3.4,0-6.1,1.1-8.1,3.4s-3.1,5.3-3.1,9.2c0,4.2,1.1,7.4,3.2,9.7s5.2,3.4,9.1,3.4c2.5,0,4.8-0.7,6.7-2.1s3.3-3.4,4.1-6h-13.5v-7.7
		h22.4V115c-0.8,2.6-2.2,5-4,7.2c-1.8,2.2-4.2,4-7,5.4s-6.1,2.1-9.8,2.1c-4.4,0-8.3-0.9-11.7-2.8c-3.3-1.9-5.9-4.5-7.7-7.9
		s-2.7-7.3-2.7-11.7c0-4.4,0.9-8.3,2.7-11.7c1.8-3.4,4.4-6.1,7.7-7.9c3.3-1.9,7.2-2.8,11.6-2.8C245.6,84.7,250.1,86,253.7,88.7z"/>
	<path class="st0" d="M282.7,95.9c2.1-1.3,4.4-1.9,6.8-1.9v11.4h-3.1c-2.8,0-5,0.6-6.6,1.8c-1.6,1.2-2.3,3.2-2.3,6.1v15.8h-10.7
		V94.4h10.7v6.6C278.9,98.8,280.6,97.2,282.7,95.9z"/>
	<path class="st0" d="M314.1,95.8c1.9,1.2,3.3,2.8,4.2,4.9v-6.3H329v34.8h-10.6v-6.3c-0.9,2.1-2.3,3.7-4.2,4.9s-4.2,1.8-6.9,1.8
		c-2.9,0-5.4-0.7-7.7-2.2c-2.3-1.4-4-3.5-5.4-6.2c-1.3-2.7-2-5.9-2-9.5c0-3.7,0.6-6.8,2-9.5c1.3-2.7,3.1-4.7,5.4-6.2
		c2.3-1.4,4.8-2.2,7.7-2.2C309.9,94,312.2,94.6,314.1,95.8z M305.2,105.6c-1.4,1.5-2.1,3.6-2.1,6.2c0,2.7,0.7,4.7,2.1,6.2
		s3.2,2.2,5.5,2.2s4.1-0.8,5.5-2.3s2.1-3.6,2.1-6.2s-0.7-4.7-2.1-6.2s-3.3-2.3-5.5-2.3C308.4,103.3,306.6,104.1,305.2,105.6z"/>
	<path class="st0" d="M367.9,98c2.4,2.7,3.5,6.3,3.5,11v20.2h-10.7v-19c0-2.3-0.6-4.2-1.8-5.5c-1.2-1.3-2.9-2-4.9-2
		c-2.2,0-3.9,0.7-5.1,2.1c-1.3,1.4-1.9,3.3-1.9,5.9v18.5h-10.7V94.4H347v6.4c1-2.1,2.5-3.7,4.5-4.9c2-1.2,4.3-1.8,7-1.8
		C362.4,94,365.6,95.4,367.9,98z"/>
	<path class="st0" d="M253.5,149.3c3.7,2.9,6.1,6.9,7.1,12h-11.3c-0.8-2-2.1-3.6-3.8-4.8s-3.8-1.7-6.1-1.7c-3.1,0-5.6,1.1-7.6,3.4
		c-1.9,2.3-2.9,5.4-2.9,9.2s1,6.9,2.9,9.1c1.9,2.3,4.4,3.4,7.6,3.4c2.4,0,4.4-0.6,6.1-1.8c1.7-1.2,3-2.7,3.8-4.7h11.3
		c-1.1,5-3.5,9-7.1,11.9c-3.7,3-8.3,4.5-13.9,4.5c-4.3,0-8-0.9-11.3-2.8c-3.2-1.9-5.8-4.5-7.5-7.9s-2.6-7.3-2.6-11.7
		s0.9-8.3,2.6-11.7c1.8-3.4,4.3-6.1,7.5-7.9s7-2.8,11.3-2.8C245.1,144.9,249.8,146.4,253.5,149.3z"/>
	<path class="st0" d="M286.7,156c1.9,1.2,3.3,2.9,4.2,4.9v-6.3h10.6v34.8h-10.6v-6.3c-0.9,2.1-2.3,3.7-4.2,4.9
		c-1.9,1.2-4.2,1.8-6.9,1.8c-2.9,0-5.4-0.7-7.7-2.1c-2.3-1.4-4.1-3.5-5.4-6.2s-2-5.9-2-9.5c0-3.7,0.7-6.8,2-9.5s3.1-4.7,5.4-6.2
		c2.3-1.4,4.8-2.1,7.7-2.1C282.5,154.2,284.8,154.8,286.7,156z M277.7,165.8c-1.4,1.5-2.1,3.6-2.1,6.2s0.7,4.7,2.1,6.2
		s3.2,2.3,5.5,2.3c2.2,0,4.1-0.8,5.5-2.3s2.1-3.6,2.1-6.2c0-2.6-0.7-4.7-2.1-6.2s-3.3-2.3-5.5-2.3
		C281,163.6,279.1,164.3,277.7,165.8z"/>
	<path class="st0" d="M340.5,158.3c2.4,2.7,3.5,6.3,3.5,11v20.2h-10.7v-19c0-2.3-0.6-4.1-1.8-5.5c-1.2-1.3-2.9-2-4.9-2
		c-2.2,0-3.9,0.7-5.1,2.1c-1.3,1.4-1.9,3.3-1.9,5.9v18.5h-10.7v-34.8h10.7v6.4c1-2.1,2.5-3.7,4.5-4.9s4.3-1.8,7-1.8
		C335,154.3,338.1,155.6,340.5,158.3z"/>
	<path class="st0" d="M371.1,156c1.9,1.2,3.3,2.9,4.2,4.9v-6.3H386v34.8h-10.6v-6.3c-0.9,2.1-2.3,3.7-4.2,4.9
		c-1.9,1.2-4.2,1.8-6.9,1.8c-2.9,0-5.4-0.7-7.7-2.1c-2.3-1.4-4.1-3.5-5.4-6.2s-2-5.9-2-9.5c0-3.7,0.6-6.8,2-9.5s3.1-4.7,5.4-6.2
		c2.3-1.4,4.8-2.1,7.7-2.1C366.9,154.2,369.2,154.8,371.1,156z M362.2,165.8c-1.4,1.5-2.1,3.6-2.1,6.2s0.7,4.7,2.1,6.2
		s3.2,2.3,5.5,2.3s4.1-0.8,5.5-2.3s2.1-3.6,2.1-6.2c0-2.6-0.7-4.7-2.1-6.2s-3.3-2.3-5.5-2.3C365.4,163.6,363.6,164.3,362.2,165.8z"
		/>
	<path class="st0" d="M409.1,156.1c2.1-1.3,4.4-1.9,6.8-1.9v11.4h-3c-2.8,0-5,0.6-6.6,1.8s-2.3,3.2-2.3,6.1v15.8h-10.7v-34.8H404
		v6.6C405.3,159.1,407,157.4,409.1,156.1z"/>
	<path class="st0" d="M421.2,140.8c1.2-1.1,2.7-1.6,4.6-1.6s3.5,0.5,4.6,1.6c1.2,1.1,1.7,2.4,1.7,4s-0.6,2.9-1.7,4
		c-1.2,1.1-2.7,1.6-4.6,1.6s-3.5-0.5-4.6-1.6c-1.2-1.1-1.8-2.4-1.8-4C419.5,143.2,420,141.9,421.2,140.8z M431.1,154.6v34.8h-10.7
		v-34.8H431.1z"/>
	<path class="st0" d="M458.6,156c1.9,1.2,3.3,2.9,4.2,4.9v-6.3h10.6v34.8h-10.6v-6.3c-0.9,2.1-2.3,3.7-4.2,4.9
		c-1.9,1.2-4.2,1.8-6.9,1.8c-2.9,0-5.4-0.7-7.7-2.1c-2.3-1.4-4.1-3.5-5.4-6.2s-2-5.9-2-9.5c0-3.7,0.6-6.8,2-9.5s3.1-4.7,5.4-6.2
		c2.3-1.4,4.8-2.1,7.7-2.1C454.4,154.2,456.7,154.8,458.6,156z M449.6,165.8c-1.4,1.5-2.1,3.6-2.1,6.2s0.7,4.7,2.1,6.2
		s3.2,2.3,5.5,2.3c2.2,0,4.1-0.8,5.5-2.3s2.1-3.6,2.1-6.2c0-2.6-0.7-4.7-2.1-6.2s-3.3-2.3-5.5-2.3
		C452.9,163.6,451,164.3,449.6,165.8z"/>
	<path class="st0" d="M494.2,178.8v10.7h-11v-10.7H494.2z"/>
</g>
<path class="st0" d="M138.5,229.7l16.7-32.2h40.4h3.3v-3.3V15v-3.3h-3.3h-179h-3.3V15v179.1v3.3h3.3h107.2L138.5,229.7z
	 M175.5,173.9H172h-25.7H135h-5.6h-9.8H91.9H36.8V35.2h138.7V173.9z"/>
</svg>
