<svg id="Capa_1" data-name="Capa 1" xmlns="http://www.w3.org/2000/svg" viewBox="0 0 783.59 200.68"><defs><style>.cls-1{fill:#4c4c4b;}</style></defs><title>logo_easd</title><polygon class="cls-1" points="230.65 8.74 230.65 19.7 245.61 19.7 245.61 26.16 230.65 26.16 230.65 37.53 247.41 37.53 247.41 44.3 222.2 44.3 222.2 2.04 247.41 2.04 247.41 8.74 230.65 8.74"/><path class="cls-1" d="M303.91,211.07a13.19,13.19,0,0,1,4.55,8.14h-7.9a6.56,6.56,0,0,0-2.16-3.83,6.45,6.45,0,0,0-4.37-1.44,5,5,0,0,0-3.35,1,3.43,3.43,0,0,0-1.2,2.75,2.81,2.81,0,0,0,1,2.22,6.92,6.92,0,0,0,2.4,1.32c1,.31,2.33.69,4.13,1.13a42.22,42.22,0,0,1,6.13,1.77,10.15,10.15,0,0,1,4.07,2.93,8.08,8.08,0,0,1,1.71,5.42,8.37,8.37,0,0,1-3.32,6.88q-3.33,2.64-8.95,2.64-6.47,0-10.36-2.91a12.19,12.19,0,0,1-4.73-8.29h8.08a5.43,5.43,0,0,0,2.16,3.86,7.8,7.8,0,0,0,4.85,1.41A4.69,4.69,0,0,0,299.9,235a3.5,3.5,0,0,0,1.14-2.72,3,3,0,0,0-1-2.33,6.72,6.72,0,0,0-2.45-1.38c-1-.32-2.37-.7-4.16-1.14a46.79,46.79,0,0,1-6-1.71,9.42,9.42,0,0,1-3.95-2.78,7.81,7.81,0,0,1-1.65-5.27,8.64,8.64,0,0,1,3.29-7c2.2-1.8,5.23-2.69,9.1-2.69q6,0,9.7,3" transform="translate(-29.15 -197.3)"/><path class="cls-1" d="M340.76,211.49a15.13,15.13,0,0,1,5.35,9.46h-8.92a6.79,6.79,0,0,0-2.45-4.16,7.53,7.53,0,0,0-4.85-1.53,7.27,7.27,0,0,0-5.6,2.48c-1.49,1.66-2.24,4.08-2.24,7.28s.75,5.61,2.24,7.27a7.23,7.23,0,0,0,5.6,2.48,7.52,7.52,0,0,0,4.85-1.52,6.85,6.85,0,0,0,2.45-4.16h8.92a15.16,15.16,0,0,1-5.35,9.46A16.46,16.46,0,0,1,330.07,242a17.61,17.61,0,0,1-8.62-2.07,14.54,14.54,0,0,1-5.87-5.89,20.66,20.66,0,0,1,0-18.11,14.32,14.32,0,0,1,5.87-5.9,17.82,17.82,0,0,1,8.62-2,16.41,16.41,0,0,1,10.69,3.47" transform="translate(-29.15 -197.3)"/><path class="cls-1" d="M383.83,208.44V241.6h-8.44v-6.71a10.6,10.6,0,0,1-4.34,5.24,12.9,12.9,0,0,1-7,1.89,11.77,11.77,0,0,1-9.16-3.77q-3.41-3.78-3.41-10.54V208.44h8.38v18.31a8.65,8.65,0,0,0,2,6.14,7.13,7.13,0,0,0,5.5,2.18,7.54,7.54,0,0,0,5.81-2.33c1.44-1.56,2.16-3.79,2.16-6.71V208.44Z" transform="translate(-29.15 -197.3)"/><path class="cls-1" d="M422.38,226.63H398.07c.12,3,.92,5.13,2.4,6.53a7.69,7.69,0,0,0,5.51,2.09,8,8,0,0,0,4.88-1.43,6.41,6.41,0,0,0,2.48-3.89h8.92a14.32,14.32,0,0,1-2.81,6.22,14.76,14.76,0,0,1-5.54,4.31,18.92,18.92,0,0,1-16.13-.51,14.42,14.42,0,0,1-5.87-5.89,20.57,20.57,0,0,1,0-18.11,14.21,14.21,0,0,1,5.87-5.9,17.79,17.79,0,0,1,8.62-2,17.46,17.46,0,0,1,8.59,2,14.37,14.37,0,0,1,5.68,5.6,16.21,16.21,0,0,1,2,8.11,15.83,15.83,0,0,1-.3,2.87m-10.33-9.87a8.07,8.07,0,0,0-5.65-2.1,8.27,8.27,0,0,0-5.75,2.1,8.55,8.55,0,0,0-2.58,6.16h16.11c.12-2.71-.59-4.77-2.13-6.16" transform="translate(-29.15 -197.3)"/><rect class="cls-1" x="399.52" width="8.44" height="44.3"/><path class="cls-1" d="M464.94,210a10.74,10.74,0,0,1,4.25,5.33v-6.89h8.38V241.6h-8.38v-6.95a10.86,10.86,0,0,1-4.25,5.36,12.59,12.59,0,0,1-7.18,2,14.24,14.24,0,0,1-7.55-2,13.69,13.69,0,0,1-5.23-5.89A22.71,22.71,0,0,1,445,216a13.71,13.71,0,0,1,5.23-5.9,14.24,14.24,0,0,1,7.55-2,12.73,12.73,0,0,1,7.18,2m-10.89,8a10,10,0,0,0-2.4,7.07,9.84,9.84,0,0,0,2.4,7,8.28,8.28,0,0,0,6.34,2.55,8.36,8.36,0,0,0,6.32-2.61,9.69,9.69,0,0,0,2.48-7,9.8,9.8,0,0,0-2.48-7,8.39,8.39,0,0,0-6.32-2.6,8.26,8.26,0,0,0-6.34,2.57" transform="translate(-29.15 -197.3)"/><path class="cls-1" d="M518.43,210a11.19,11.19,0,0,1,4.28,5.33v-18h8.38v44.3h-8.38v-6.95a11.31,11.31,0,0,1-4.28,5.36,12.46,12.46,0,0,1-7.16,2,14.23,14.23,0,0,1-7.54-2,13.77,13.77,0,0,1-5.24-5.89,22.82,22.82,0,0,1,0-18.14,13.8,13.8,0,0,1,5.24-5.9,14.23,14.23,0,0,1,7.54-2,12.59,12.59,0,0,1,7.16,2m-10.87,8a10,10,0,0,0-2.39,7.07,9.88,9.88,0,0,0,2.39,7,9.06,9.06,0,0,0,12.66-.06,9.66,9.66,0,0,0,2.49-7,9.76,9.76,0,0,0-2.49-7,9,9,0,0,0-12.66,0" transform="translate(-29.15 -197.3)"/><path class="cls-1" d="M569.64,226.63H545.33c.13,3,.92,5.13,2.4,6.53a7.69,7.69,0,0,0,5.51,2.09,8,8,0,0,0,4.88-1.43,6.41,6.41,0,0,0,2.48-3.89h8.92a14.32,14.32,0,0,1-2.81,6.22,14.76,14.76,0,0,1-5.54,4.31A18.92,18.92,0,0,1,545,240a14.48,14.48,0,0,1-5.87-5.89,20.66,20.66,0,0,1,0-18.11,14.27,14.27,0,0,1,5.87-5.9,17.79,17.79,0,0,1,8.62-2,17.46,17.46,0,0,1,8.59,2,14.3,14.3,0,0,1,5.68,5.6,16.21,16.21,0,0,1,2,8.11,15.83,15.83,0,0,1-.3,2.87m-10.33-9.87a8.07,8.07,0,0,0-5.65-2.1,8.29,8.29,0,0,0-5.75,2.1,8.59,8.59,0,0,0-2.58,6.16h16.11c.12-2.71-.59-4.77-2.13-6.16" transform="translate(-29.15 -197.3)"/><path class="cls-1" d="M614.72,233.1H597.78l-3,8.5h-8.92l15.57-41.79h9.64l15.5,41.79h-8.92Zm-2.28-6.41-6.22-17.84L600,226.69Z" transform="translate(-29.15 -197.3)"/><path class="cls-1" d="M644.47,209.78a13,13,0,0,1,6.82-1.82v9h-2.45q-9.29,0-9.28,8.62v16h-8.44V208.43h8.44v6.35a13.93,13.93,0,0,1,4.91-5" transform="translate(-29.15 -197.3)"/><path class="cls-1" d="M673.68,234.36v7.24h-4.43q-5.57,0-8.53-2.7t-3-9V215.56h-4.61v-7.13h4.61v-8.2h8.44v8.2h7.42v7.13H666.2V230a4.68,4.68,0,0,0,1,3.36,4.44,4.44,0,0,0,3.23,1Z" transform="translate(-29.15 -197.3)"/><path class="cls-1" d="M710.62,226.63H686.31c.12,3,.92,5.13,2.4,6.53a7.67,7.67,0,0,0,5.5,2.09,8,8,0,0,0,4.88-1.43,6.38,6.38,0,0,0,2.49-3.89h8.92a14.23,14.23,0,0,1-2.82,6.22,14.6,14.6,0,0,1-5.54,4.31A18.92,18.92,0,0,1,686,240a14.54,14.54,0,0,1-5.87-5.89,20.66,20.66,0,0,1,0-18.11,14.32,14.32,0,0,1,5.87-5.9,17.85,17.85,0,0,1,8.62-2,17.43,17.43,0,0,1,8.59,2,14.33,14.33,0,0,1,5.69,5.6,16.21,16.21,0,0,1,2,8.11,16.78,16.78,0,0,1-.3,2.87m-10.33-9.87a8.1,8.1,0,0,0-5.66-2.1,8.26,8.26,0,0,0-5.74,2.1,8.55,8.55,0,0,0-2.58,6.16h16.11c.12-2.71-.59-4.77-2.13-6.16" transform="translate(-29.15 -197.3)"/><polygon class="cls-1" points="706.49 11.13 715.53 33.64 723.91 11.13 733.19 11.13 712.89 60.1 703.56 60.1 711.04 43.34 697.09 11.13 706.49 11.13"/><path class="cls-1" d="M278.77,300.68a11.58,11.58,0,0,1-4.79,4.37,16.58,16.58,0,0,1-7.72,1.65,20,20,0,0,1-8-1.53,13.46,13.46,0,0,1-5.66-4.4,12.65,12.65,0,0,1-2.43-6.7h9a6.85,6.85,0,0,0,2.07,4.28,6.47,6.47,0,0,0,4.7,1.71,5.47,5.47,0,0,0,4-1.41,4.91,4.91,0,0,0,1.41-3.62,4.71,4.71,0,0,0-1.14-3.26,8.32,8.32,0,0,0-2.88-2.07c-1.15-.52-2.75-1.12-4.78-1.8a46.12,46.12,0,0,1-6.47-2.6,12.1,12.1,0,0,1-4.28-3.74,10.71,10.71,0,0,1-1.76-6.41,10.41,10.41,0,0,1,3.92-8.59q3.91-3.13,10.38-3.14,6.71,0,10.69,3.23a12.23,12.23,0,0,1,4.52,8.62h-9.1a6.35,6.35,0,0,0-1.92-3.74,5.94,5.94,0,0,0-4.25-1.47,5.61,5.61,0,0,0-3.77,1.23,5,5,0,0,0-.33,6.65,8.59,8.59,0,0,0,2.82,2,45.63,45.63,0,0,0,4.63,1.74,59.75,59.75,0,0,1,6.62,2.69,11.71,11.71,0,0,1,4.34,3.77,11.08,11.08,0,0,1,1.8,6.59,11.42,11.42,0,0,1-1.62,5.95" transform="translate(-29.15 -197.3)"/><path class="cls-1" d="M318.34,273.12v33.16H309.9v-6.7a10.58,10.58,0,0,1-4.34,5.23,12.9,12.9,0,0,1-7,1.89,11.77,11.77,0,0,1-9.16-3.77Q286,299.17,286,292.39V273.12h8.38v18.32a8.64,8.64,0,0,0,2,6.13,7.14,7.14,0,0,0,5.51,2.19,7.49,7.49,0,0,0,5.8-2.34c1.44-1.55,2.16-3.79,2.16-6.7v-17.6Z" transform="translate(-29.15 -197.3)"/><path class="cls-1" d="M353.36,274.73a13.86,13.86,0,0,1,5.24,5.9,22.82,22.82,0,0,1,0,18.14,13.86,13.86,0,0,1-5.24,5.9,14.33,14.33,0,0,1-7.55,2,12.52,12.52,0,0,1-7.15-2,11.05,11.05,0,0,1-4.22-5.36v22.75H326v-49h8.44V280a10.89,10.89,0,0,1,4.22-5.33,12.66,12.66,0,0,1,7.15-2,14.33,14.33,0,0,1,7.55,2m-16.49,7.94a11.08,11.08,0,0,0,0,14,9.06,9.06,0,0,0,12.66.06,9.87,9.87,0,0,0,2.39-7,10,10,0,0,0-2.39-7.06,9,9,0,0,0-12.66,0" transform="translate(-29.15 -197.3)"/><path class="cls-1" d="M397.36,291.32H373.05q.18,4.43,2.4,6.52a7.68,7.68,0,0,0,5.51,2.1,8,8,0,0,0,4.87-1.44,6.36,6.36,0,0,0,2.49-3.89h8.92a14.23,14.23,0,0,1-2.82,6.22,14.55,14.55,0,0,1-5.53,4.31,19,19,0,0,1-16.14-.5,14.54,14.54,0,0,1-5.86-5.9,20.57,20.57,0,0,1,0-18.11,14.3,14.3,0,0,1,5.86-5.9,18,18,0,0,1,8.62-2,17.51,17.51,0,0,1,8.59,2,14.39,14.39,0,0,1,5.69,5.6,16.23,16.23,0,0,1,2,8.11,16,16,0,0,1-.3,2.88M387,281.44a8.1,8.1,0,0,0-5.66-2.1,8.26,8.26,0,0,0-5.74,2.1,8.55,8.55,0,0,0-2.58,6.16h16.11c.12-2.71-.59-4.77-2.13-6.16" transform="translate(-29.15 -197.3)"/><path class="cls-1" d="M417,274.46a13.12,13.12,0,0,1,6.83-1.82v9h-2.46q-9.27,0-9.28,8.62v16h-8.44V273.12h8.44v6.34a14,14,0,0,1,4.91-5" transform="translate(-29.15 -197.3)"/><path class="cls-1" d="M429,260.28a6.17,6.17,0,0,1,7.55,0,4.25,4.25,0,0,1,1.43,3.32,4.2,4.2,0,0,1-1.43,3.26,6.17,6.17,0,0,1-7.55,0,4.2,4.2,0,0,1-1.43-3.26,4.25,4.25,0,0,1,1.43-3.32m8,46h-8.44V273.12h8.44Z" transform="translate(-29.15 -197.3)"/><path class="cls-1" d="M468.62,274.73a14.94,14.94,0,0,1,6.08,5.9,19.66,19.66,0,0,1,0,18.11,15.11,15.11,0,0,1-6.08,5.89,19.36,19.36,0,0,1-17.42,0,15.09,15.09,0,0,1-6.07-5.89,19.58,19.58,0,0,1,0-18.11,14.92,14.92,0,0,1,6.07-5.9,19.7,19.7,0,0,1,17.42,0m-14.69,7.76c-1.64,1.65-2.46,4.06-2.46,7.21s.82,5.56,2.46,7.21a8.44,8.44,0,0,0,12,0c1.63-1.65,2.45-4.06,2.45-7.21s-.82-5.56-2.45-7.21a8.44,8.44,0,0,0-12,0" transform="translate(-29.15 -197.3)"/><path class="cls-1" d="M496.25,274.46a13.11,13.11,0,0,1,6.82-1.82v9h-2.45q-9.28,0-9.28,8.62v16H482.9V273.12h8.44v6.34a13.93,13.93,0,0,1,4.91-5" transform="translate(-29.15 -197.3)"/><path class="cls-1" d="M540.94,274.67a11.24,11.24,0,0,1,4.28,5.33V262h8.38v44.3h-8.38v-6.94a11.41,11.41,0,0,1-4.28,5.36,12.53,12.53,0,0,1-7.16,2,14.29,14.29,0,0,1-7.54-2,13.79,13.79,0,0,1-5.24-5.9,22.82,22.82,0,0,1,0-18.14,13.79,13.79,0,0,1,5.24-5.9,14.29,14.29,0,0,1,7.54-2,12.67,12.67,0,0,1,7.16,2m-10.87,8a9.93,9.93,0,0,0-2.39,7.06,9.82,9.82,0,0,0,2.39,7,9.06,9.06,0,0,0,12.66-.06,11.08,11.08,0,0,0,0-14,9,9,0,0,0-12.66,0" transform="translate(-29.15 -197.3)"/><path class="cls-1" d="M592.15,291.32H567.84c.13,2.95.92,5.12,2.4,6.52a7.7,7.7,0,0,0,5.51,2.1,8,8,0,0,0,4.88-1.44,6.38,6.38,0,0,0,2.48-3.89H592a14.32,14.32,0,0,1-2.81,6.22,14.66,14.66,0,0,1-5.54,4.31,19,19,0,0,1-16.13-.5,14.56,14.56,0,0,1-5.87-5.9,20.57,20.57,0,0,1,0-18.11,14.32,14.32,0,0,1,5.87-5.9,17.9,17.9,0,0,1,8.62-2,17.57,17.57,0,0,1,8.59,2,14.37,14.37,0,0,1,5.68,5.6,16.23,16.23,0,0,1,2,8.11,16,16,0,0,1-.3,2.88m-10.33-9.88a8.07,8.07,0,0,0-5.65-2.1,8.29,8.29,0,0,0-5.75,2.1,8.55,8.55,0,0,0-2.58,6.16H584c.12-2.71-.59-4.77-2.13-6.16" transform="translate(-29.15 -197.3)"/><path class="cls-1" d="M646,296.16a18.38,18.38,0,0,1-7.64,7.46,25,25,0,0,1-11.88,2.66h-15V264h15a25.46,25.46,0,0,1,11.88,2.6A18.06,18.06,0,0,1,646,274a24.68,24.68,0,0,1,0,22.17m-9.67-1q3.74-3.6,3.74-10.06T636.36,275q-3.75-3.59-10.57-3.59h-5.86v27.36h5.86q6.83,0,10.57-3.59" transform="translate(-29.15 -197.3)"/><path class="cls-1" d="M655.48,260.28a6.17,6.17,0,0,1,7.55,0,4.25,4.25,0,0,1,1.43,3.32,4.2,4.2,0,0,1-1.43,3.26,6.17,6.17,0,0,1-7.55,0,4.2,4.2,0,0,1-1.43-3.26,4.25,4.25,0,0,1,1.43-3.32m8,46H655V273.12h8.45Z" transform="translate(-29.15 -197.3)"/><path class="cls-1" d="M692.24,275.75a13.27,13.27,0,0,1,4.55,8.14h-7.9a6.59,6.59,0,0,0-2.16-3.83,6.47,6.47,0,0,0-4.37-1.44,5,5,0,0,0-3.35,1,3.43,3.43,0,0,0-1.2,2.76,2.8,2.8,0,0,0,1,2.21,6.92,6.92,0,0,0,2.4,1.32c1,.32,2.33.7,4.12,1.14a41.29,41.29,0,0,1,6.14,1.76,10.14,10.14,0,0,1,4.07,2.94,8,8,0,0,1,1.71,5.41,8.37,8.37,0,0,1-3.33,6.89q-3.32,2.63-8.94,2.63-6.47,0-10.36-2.9a12.24,12.24,0,0,1-4.73-8.29h8.08a5.47,5.47,0,0,0,2.16,3.86,7.78,7.78,0,0,0,4.85,1.4,4.69,4.69,0,0,0,3.29-1,3.54,3.54,0,0,0,1.14-2.73,3,3,0,0,0-1-2.33,6.68,6.68,0,0,0-2.46-1.38c-1-.32-2.36-.7-4.16-1.14a45.2,45.2,0,0,1-6-1.7,9.53,9.53,0,0,1-4-2.79,7.78,7.78,0,0,1-1.65-5.26,8.64,8.64,0,0,1,3.29-7q3.3-2.68,9.1-2.69,6,0,9.7,3.05" transform="translate(-29.15 -197.3)"/><path class="cls-1" d="M734.38,291.32h-24.3q.18,4.43,2.39,6.52a7.71,7.71,0,0,0,5.51,2.1,8,8,0,0,0,4.88-1.44,6.34,6.34,0,0,0,2.48-3.89h8.92a14.21,14.21,0,0,1-2.81,6.22,14.58,14.58,0,0,1-5.54,4.31,19,19,0,0,1-16.13-.5,14.56,14.56,0,0,1-5.87-5.9,20.66,20.66,0,0,1,0-18.11,14.32,14.32,0,0,1,5.87-5.9,17.93,17.93,0,0,1,8.62-2,17.54,17.54,0,0,1,8.59,2,14.46,14.46,0,0,1,5.69,5.6,16.33,16.33,0,0,1,2,8.11,16,16,0,0,1-.3,2.88m-10.32-9.88a8.11,8.11,0,0,0-5.66-2.1,8.29,8.29,0,0,0-5.75,2.1,8.58,8.58,0,0,0-2.57,6.16h16.1c.12-2.71-.59-4.77-2.12-6.16" transform="translate(-29.15 -197.3)"/><path class="cls-1" d="M769.58,276.41c2.28,2.51,3.41,6,3.41,10.59v19.28h-8.38V288a8.67,8.67,0,0,0-2-6.13,7.25,7.25,0,0,0-5.57-2.19,7.45,7.45,0,0,0-5.75,2.34c-1.43,1.55-2.15,3.79-2.15,6.7v17.6h-8.44V273.12h8.44v6.64a10.59,10.59,0,0,1,4.34-5.24,12.94,12.94,0,0,1,7-1.88,11.75,11.75,0,0,1,9.16,3.77m-14.31-14.07a21.82,21.82,0,0,1,2.28,1.2,16.19,16.19,0,0,0,1.76,1,3.65,3.65,0,0,0,1.47.3,2.34,2.34,0,0,0,1.77-.72,3.77,3.77,0,0,0,.87-2.1h4.37a10.54,10.54,0,0,1-2.49,5.9,6.4,6.4,0,0,1-4.82,1.94,5.66,5.66,0,0,1-2.24-.41,24.13,24.13,0,0,1-2.37-1.2c-.72-.4-1.28-.7-1.7-.9a3.24,3.24,0,0,0-1.41-.3c-1.48,0-2.36.94-2.63,2.81h-4.31q1.24-7.89,7.24-7.9a5.45,5.45,0,0,1,2.21.42" transform="translate(-29.15 -197.3)"/><path class="cls-1" d="M804.45,274.73a14.94,14.94,0,0,1,6.08,5.9,19.66,19.66,0,0,1,0,18.11,15.11,15.11,0,0,1-6.08,5.89,19.36,19.36,0,0,1-17.42,0,15.09,15.09,0,0,1-6.07-5.89,19.58,19.58,0,0,1,0-18.11,14.92,14.92,0,0,1,6.07-5.9,19.7,19.7,0,0,1,17.42,0m-14.7,7.76c-1.63,1.65-2.45,4.06-2.45,7.21s.82,5.56,2.45,7.21a8.45,8.45,0,0,0,12,0c1.63-1.65,2.45-4.06,2.45-7.21s-.82-5.56-2.45-7.21a8.45,8.45,0,0,0-12,0" transform="translate(-29.15 -197.3)"/><path class="cls-1" d="M284,332.11a16.61,16.61,0,0,1,6.4,10.54H279.55a8.35,8.35,0,0,0-3.3-3.62,11,11,0,0,0-13.11,1.91q-2.92,3.27-2.93,8.83,0,6,3.08,9.28t8.77,3.23a10.58,10.58,0,0,0,6.41-2,10.73,10.73,0,0,0,3.89-5.72H269.43V347.2h21.49v10.12a20.67,20.67,0,0,1-3.83,6.88,19.76,19.76,0,0,1-6.73,5.15,21.46,21.46,0,0,1-9.37,2,22.25,22.25,0,0,1-11.2-2.72A18.73,18.73,0,0,1,252.4,361a25.31,25.31,0,0,1,0-22.39,18.72,18.72,0,0,1,7.36-7.63,22,22,0,0,1,11.11-2.73q8,0,13.11,3.89" transform="translate(-29.15 -197.3)"/><path class="cls-1" d="M311.84,339a12.6,12.6,0,0,1,6.56-1.8v11h-2.94a10.16,10.16,0,0,0-6.31,1.73q-2.25,1.74-2.25,5.87V371H296.67v-33.4H306.9v6.29a14.5,14.5,0,0,1,4.94-4.85" transform="translate(-29.15 -197.3)"/><path class="cls-1" d="M342,338.88a10.44,10.44,0,0,1,4.08,4.73v-6.05h10.17V371H346.06v-6a10.49,10.49,0,0,1-4.08,4.73,12,12,0,0,1-6.58,1.73,13.57,13.57,0,0,1-7.39-2.06,14.11,14.11,0,0,1-5.15-6,22.92,22.92,0,0,1,0-18.23,14.12,14.12,0,0,1,5.15-5.92,13.49,13.49,0,0,1,7.39-2.07,12.05,12.05,0,0,1,6.58,1.74m-8.59,9.4a10,10,0,0,0,0,12,7.53,7.53,0,0,0,10.6-.06,9.56,9.56,0,0,0,0-11.88,7.55,7.55,0,0,0-10.6,0" transform="translate(-29.15 -197.3)"/><path class="cls-1" d="M393.62,341q3.38,3.84,3.38,10.54V371H386.76V352.77a7.38,7.38,0,0,0-1.76-5.24,6.14,6.14,0,0,0-4.7-1.89,6.39,6.39,0,0,0-4.94,2,8,8,0,0,0-1.83,5.62V371H363.3v-33.4h10.23v6.11a11.06,11.06,0,0,1,4.28-4.73,12.55,12.55,0,0,1,6.68-1.74,11.59,11.59,0,0,1,9.13,3.83" transform="translate(-29.15 -197.3)"/><path class="cls-1" d="M448.45,332.47A19.45,19.45,0,0,1,455.3,344H444.47a9.93,9.93,0,0,0-3.68-4.61,10.28,10.28,0,0,0-5.9-1.68,9,9,0,0,0-7.24,3.29,13.27,13.27,0,0,0-2.76,8.8c0,3.67.92,6.6,2.76,8.77a9,9,0,0,0,7.24,3.27,10.28,10.28,0,0,0,5.9-1.68,10.08,10.08,0,0,0,3.68-4.55H455.3A19.5,19.5,0,0,1,448.45,367q-5.29,4.29-13.38,4.28a21,21,0,0,1-10.83-2.72A18.52,18.52,0,0,1,417,361a25.94,25.94,0,0,1,0-22.39,18.46,18.46,0,0,1,7.22-7.63,21,21,0,0,1,10.83-2.73q8.08,0,13.38,4.25" transform="translate(-29.15 -197.3)"/><path class="cls-1" d="M480.33,338.88a10.47,10.47,0,0,1,4.07,4.73v-6.05h10.18V371H484.4v-6a10.53,10.53,0,0,1-4.07,4.73,12.08,12.08,0,0,1-6.59,1.73,13.57,13.57,0,0,1-7.39-2.06,14.11,14.11,0,0,1-5.15-6,23,23,0,0,1,0-18.23,14.12,14.12,0,0,1,5.15-5.92,13.49,13.49,0,0,1,7.39-2.07,12.09,12.09,0,0,1,6.59,1.74m-8.59,9.4a9.92,9.92,0,0,0,0,12,7.52,7.52,0,0,0,10.59-.06,9.56,9.56,0,0,0,0-11.88,7.53,7.53,0,0,0-10.59,0" transform="translate(-29.15 -197.3)"/><path class="cls-1" d="M532,341q3.38,3.84,3.38,10.54V371H525.1V352.77a7.33,7.33,0,0,0-1.76-5.24,6.14,6.14,0,0,0-4.7-1.89,6.39,6.39,0,0,0-4.94,2,8,8,0,0,0-1.82,5.62V371H501.64v-33.4h10.24v6.11a10.93,10.93,0,0,1,4.28-4.73,12.51,12.51,0,0,1,6.67-1.74A11.59,11.59,0,0,1,532,341" transform="translate(-29.15 -197.3)"/><path class="cls-1" d="M561.38,338.88a10.41,10.41,0,0,1,4.07,4.73v-6.05h10.18V371H565.45v-6a10.47,10.47,0,0,1-4.07,4.73,12,12,0,0,1-6.58,1.73,13.6,13.6,0,0,1-7.4-2.06,14.09,14.09,0,0,1-5.14-6,22.92,22.92,0,0,1,0-18.23,14.1,14.1,0,0,1,5.14-5.92,13.53,13.53,0,0,1,7.4-2.07,12.05,12.05,0,0,1,6.58,1.74m-8.59,9.4a10,10,0,0,0,0,12,7.53,7.53,0,0,0,10.6-.06,9.59,9.59,0,0,0,0-11.88,7,7,0,0,0-5.3-2.19,6.89,6.89,0,0,0-5.3,2.16" transform="translate(-29.15 -197.3)"/><path class="cls-1" d="M597.87,339a12.57,12.57,0,0,1,6.55-1.8v11h-2.93a10.19,10.19,0,0,0-6.32,1.73q-2.24,1.74-2.24,5.87V371H582.69v-33.4h10.24v6.29a14.41,14.41,0,0,1,4.94-4.85" transform="translate(-29.15 -197.3)"/><path class="cls-1" d="M609.45,324.3a7.18,7.18,0,0,1,8.86,0,5,5,0,0,1,1.68,3.86,4.91,4.91,0,0,1-1.68,3.8,7.18,7.18,0,0,1-8.86,0,4.9,4.9,0,0,1-1.67-3.8,5,5,0,0,1,1.67-3.86M619,371H608.74v-33.4H619Z" transform="translate(-29.15 -197.3)"/><path class="cls-1" d="M645.31,338.88a10.47,10.47,0,0,1,4.07,4.73v-6.05h10.18V371H649.38v-6a10.53,10.53,0,0,1-4.07,4.73,12.08,12.08,0,0,1-6.59,1.73,13.59,13.59,0,0,1-7.39-2.06,14.18,14.18,0,0,1-5.15-6,23,23,0,0,1,0-18.23,14.19,14.19,0,0,1,5.15-5.92,13.52,13.52,0,0,1,7.39-2.07,12.09,12.09,0,0,1,6.59,1.74m-8.59,9.4a9.92,9.92,0,0,0,0,12,7.52,7.52,0,0,0,10.59-.06,9.56,9.56,0,0,0,0-11.88,7.53,7.53,0,0,0-10.59,0" transform="translate(-29.15 -197.3)"/><rect class="cls-1" x="635.68" y="163.43" width="10.6" height="10.24"/><path class="cls-1" d="M29.15,199.49V369H87.41l15.88,29,15.89-29h79.44V199.49ZM177.44,347.76H50.33V220.67H177.44Z" transform="translate(-29.15 -197.3)"/></svg>