<svg id="Capa_1" data-name="Capa 1" xmlns="http://www.w3.org/2000/svg" viewBox="0 0 559.73 218.21"><defs><style>.cls-1{fill:#434041;}</style></defs><title>logo</title><path class="cls-1" d="M388.82,181.56V199h19.35V204H388.82v17.76h21.52v5.34H382.25v-50.9h28.09v5.34Z" transform="translate(-139.69 -175.57)"/><path class="cls-1" d="M448.61,215.35H426.23L422,227.12h-7.08l18.85-50h7.44l18.77,50h-7.08Zm-1.88-5.12-9.31-25.71-9.31,25.71Z" transform="translate(-139.69 -175.57)"/><path class="cls-1" d="M497.06,220.62a13,13,0,0,1-5.27,5.06,17.9,17.9,0,0,1-8.74,1.95,21,21,0,0,1-9-1.84,16,16,0,0,1-6.28-5.06,14.31,14.31,0,0,1-2.71-7.33h7a9.92,9.92,0,0,0,5.09,7.62,11.27,11.27,0,0,0,5.67,1.34c2.88,0,5.1-.77,6.64-2.31a8,8,0,0,0,2.31-5.93,7.65,7.65,0,0,0-1.62-5.05,11.62,11.62,0,0,0-4-3.07,55,55,0,0,0-6.5-2.41,64.56,64.56,0,0,1-7.76-3,13.23,13.23,0,0,1-5-4.23,12.23,12.23,0,0,1-2.06-7.43,12.93,12.93,0,0,1,1.91-7,12.61,12.61,0,0,1,5.49-4.69,19.72,19.72,0,0,1,8.41-1.66q7.51,0,11.92,3.64a14,14,0,0,1,5.12,9.28h-7.08a9.5,9.5,0,0,0-3.1-5.34,9.79,9.79,0,0,0-6.86-2.31,9.36,9.36,0,0,0-6.35,2.06,8.24,8.24,0,0,0-.84,10.61,10.88,10.88,0,0,0,3.87,2.89,62.79,62.79,0,0,0,6.35,2.35,64.91,64.91,0,0,1,7.91,3,13.34,13.34,0,0,1,5.09,4.37,13,13,0,0,1,2.09,7.76A13.45,13.45,0,0,1,497.06,220.62Z" transform="translate(-139.69 -175.57)"/><path class="cls-1" d="M547.39,215.1a21.23,21.23,0,0,1-9.13,8.88,30.93,30.93,0,0,1-14.48,3.14H507.6v-50.9h16.18a31.55,31.55,0,0,1,14.48,3.07,20.8,20.8,0,0,1,9.13,8.81,30.86,30.86,0,0,1,0,27Zm-8.88,1q5.26-5.13,5.27-14.45t-5.24-14.47Q533.32,182,523.27,182h-9.1v39.22h9.1Q533.24,221.21,538.51,216.08Z" transform="translate(-139.69 -175.57)"/><path class="cls-1" d="M421,250a20.05,20.05,0,0,1,7.73,12.71H415.62a10.14,10.14,0,0,0-4-4.36,13.29,13.29,0,0,0-15.81,2.3q-3.54,3.94-3.54,10.65,0,7.31,3.72,11.2t10.58,3.89A12.49,12.49,0,0,0,419,277.07h-15.6v-8.88h25.93v12.2a25,25,0,0,1-4.63,8.31,23.81,23.81,0,0,1-8.12,6.21,25.87,25.87,0,0,1-11.3,2.38,26.84,26.84,0,0,1-13.5-3.28,22.42,22.42,0,0,1-8.92-9.21,30.61,30.61,0,0,1,0-27,22.49,22.49,0,0,1,8.88-9.2,26.51,26.51,0,0,1,13.4-3.29Q414.75,245.3,421,250Z" transform="translate(-139.69 -175.57)"/><path class="cls-1" d="M454.57,258.3a15.17,15.17,0,0,1,7.91-2.17v13.22h-3.54c-3.27,0-5.81.69-7.62,2.09s-2.71,3.75-2.71,7.08v18.34H436.27v-40.3h12.34v7.59A17.46,17.46,0,0,1,454.57,258.3Z" transform="translate(-139.69 -175.57)"/><path class="cls-1" d="M490.93,258.15a12.67,12.67,0,0,1,4.91,5.7v-7.29h12.28v40.3H495.84v-7.29a12.67,12.67,0,0,1-4.91,5.7,14.56,14.56,0,0,1-7.94,2.09,16.3,16.3,0,0,1-8.92-2.49,17,17,0,0,1-6.21-7.19,27.63,27.63,0,0,1,0-22,17,17,0,0,1,6.21-7.15,16.3,16.3,0,0,1,8.92-2.49A14.64,14.64,0,0,1,490.93,258.15Zm-10.36,11.34a12,12,0,0,0,0,14.44,9.07,9.07,0,0,0,12.78-.07,11.55,11.55,0,0,0,0-14.33,8.39,8.39,0,0,0-6.39-2.64A8.29,8.29,0,0,0,480.57,269.49Z" transform="translate(-139.69 -175.57)"/><path class="cls-1" d="M553.21,260.75q4.08,4.62,4.08,12.71v23.4H544.94V274.91a8.87,8.87,0,0,0-2.13-6.32,7.39,7.39,0,0,0-5.67-2.28,7.74,7.74,0,0,0-5.95,2.38c-1.47,1.59-2.21,3.86-2.21,6.79v21.38H516.63v-40.3H529v7.37a13.33,13.33,0,0,1,5.17-5.71,15.18,15.18,0,0,1,8.05-2.09A14,14,0,0,1,553.21,260.75Z" transform="translate(-139.69 -175.57)"/><path class="cls-1" d="M420.71,320.16A23.45,23.45,0,0,1,429,334H415.9a12,12,0,0,0-4.44-5.56,12.48,12.48,0,0,0-7.11-2,10.87,10.87,0,0,0-8.74,4q-3.32,4-3.32,10.62t3.32,10.58a10.9,10.9,0,0,0,8.74,3.93,12.4,12.4,0,0,0,7.11-2A12,12,0,0,0,415.9,348H429a23.56,23.56,0,0,1-8.26,13.83Q414.32,367,404.57,367a25.45,25.45,0,0,1-13.07-3.29,22.31,22.31,0,0,1-8.71-9.21,31.33,31.33,0,0,1,0-27,22.34,22.34,0,0,1,8.71-9.2A25.45,25.45,0,0,1,404.57,315Q414.32,315,420.71,320.16Z" transform="translate(-139.69 -175.57)"/><path class="cls-1" d="M459.16,327.89a12.56,12.56,0,0,1,4.91,5.7v-7.3h12.27v40.3H464.07V359.3a12.56,12.56,0,0,1-4.91,5.7,14.6,14.6,0,0,1-8,2.1,16.3,16.3,0,0,1-8.91-2.5,17,17,0,0,1-6.22-7.18,27.76,27.76,0,0,1,0-22,17.18,17.18,0,0,1,6.22-7.15,16.29,16.29,0,0,1,8.91-2.49A14.6,14.6,0,0,1,459.16,327.89ZM448.8,339.22a12,12,0,0,0,0,14.44,9.07,9.07,0,0,0,12.78-.07,11.55,11.55,0,0,0,0-14.33,9.1,9.1,0,0,0-12.78,0Z" transform="translate(-139.69 -175.57)"/><path class="cls-1" d="M521.44,330.49q4.08,4.62,4.08,12.71v23.39H513.17V344.64a8.89,8.89,0,0,0-2.13-6.32,7.38,7.38,0,0,0-5.67-2.27,7.75,7.75,0,0,0-6,2.37,9.71,9.71,0,0,0-2.2,6.79v21.38H484.86v-40.3h12.35v7.37a13.37,13.37,0,0,1,5.17-5.7,15.18,15.18,0,0,1,8.05-2.1Q517.36,325.86,521.44,330.49Z" transform="translate(-139.69 -175.57)"/><path class="cls-1" d="M556.93,327.89a12.56,12.56,0,0,1,4.91,5.7v-7.3h12.27v40.3H561.84V359.3a12.56,12.56,0,0,1-4.91,5.7,14.56,14.56,0,0,1-7.94,2.1,16.33,16.33,0,0,1-8.92-2.5,16.94,16.94,0,0,1-6.21-7.18,27.76,27.76,0,0,1,0-22,17.16,17.16,0,0,1,6.21-7.15,16.33,16.33,0,0,1,8.92-2.49A14.56,14.56,0,0,1,556.93,327.89Zm-10.36,11.33a12,12,0,0,0,0,14.44,9.07,9.07,0,0,0,12.78-.07,11.55,11.55,0,0,0,0-14.33,9.1,9.1,0,0,0-12.78,0Z" transform="translate(-139.69 -175.57)"/><path class="cls-1" d="M600.94,328a15.17,15.17,0,0,1,7.91-2.17v13.22h-3.54c-3.27,0-5.81.69-7.62,2.09s-2.71,3.75-2.71,7.08v18.34H582.64v-40.3H595v7.59A17.54,17.54,0,0,1,600.94,328Z" transform="translate(-139.69 -175.57)"/><path class="cls-1" d="M614.92,310.3a8.67,8.67,0,0,1,10.68,0,6,6,0,0,1,2,4.66,5.92,5.92,0,0,1-2,4.58,8.63,8.63,0,0,1-10.68,0,5.93,5.93,0,0,1-2-4.58A6,6,0,0,1,614.92,310.3Zm11.47,16v40.3H614.05v-40.3Z" transform="translate(-139.69 -175.57)"/><path class="cls-1" d="M658.17,327.89a12.56,12.56,0,0,1,4.91,5.7v-7.3h12.27v40.3H663.08V359.3a12.56,12.56,0,0,1-4.91,5.7,14.58,14.58,0,0,1-7.94,2.1,16.37,16.37,0,0,1-8.93-2.5,17,17,0,0,1-6.21-7.18,27.76,27.76,0,0,1,0-22,17.23,17.23,0,0,1,6.21-7.15,16.36,16.36,0,0,1,8.93-2.49A14.58,14.58,0,0,1,658.17,327.89Zm-10.36,11.33a12,12,0,0,0,0,14.44,9.05,9.05,0,0,0,12.77-.07,11.52,11.52,0,0,0,0-14.33,9.09,9.09,0,0,0-12.77,0Z" transform="translate(-139.69 -175.57)"/><path class="cls-1" d="M699.42,354.25v12.34H686.63V354.25Z" transform="translate(-139.69 -175.57)"/><path class="cls-1" d="M265,393.77l16.7-32.22h43.78V175.8H139.69V361.55H250.17Zm37-55.74H163.21V199.32H301.92Z" transform="translate(-139.69 -175.57)"/></svg>