<?xml version="1.0" standalone="no"?>
<!DOCTYPE svg PUBLIC "-//W3C//DTD SVG 20010904//EN"
 "http://www.w3.org/TR/2001/REC-SVG-20010904/DTD/svg10.dtd">
<svg version="1.0" xmlns="http://www.w3.org/2000/svg"
 width="908.000000pt" height="908.000000pt" viewBox="0 0 908.000000 908.000000"
 preserveAspectRatio="xMidYMid meet">
<metadata>
Created by potrace 1.11, written by Peter Selinger 2001-2013
</metadata>
<g transform="translate(0.000000,908.000000) scale(0.100000,-0.100000)"
fill="#000000" stroke="none">
<path d="M670 5200 c0 -2128 3 -3870 8 -3871 4 0 602 -2 1329 -2 866 -1 1325
-5 1331 -12 5 -5 29 -46 52 -90 24 -44 52 -96 63 -115 11 -19 35 -64 55 -100
19 -36 46 -85 60 -110 14 -25 35 -63 47 -85 44 -82 142 -259 188 -343 26 -48
55 -100 63 -117 8 -16 25 -48 37 -70 53 -93 103 -184 129 -234 l27 -53 17 36
c10 20 21 36 26 36 4 0 8 5 8 11 0 6 28 61 61 122 34 62 75 137 92 167 16 30
40 73 52 95 12 22 38 69 58 105 19 36 46 85 59 110 14 25 65 117 113 205 48
88 99 180 113 205 13 25 39 72 57 105 18 33 41 76 52 95 l20 35 1814 1 1814 0
3 3872 2 3872 -3875 0 -3875 0 0 -3870z m6768 2901 c10 -1 12 -585 10 -2903
l-3 -2903 -2895 -1 c-1592 0 -2899 1 -2905 3 -10 3 -12 5769 -2 5795 3 10 579
13 2893 11 1589 -1 2895 -2 2902 -2z"/>
</g>
</svg>
