<svg xmlns="http://www.w3.org/2000/svg" viewBox="0 0 559.73 218.21"><defs><style>.cls-1{fill:#434041;}</style></defs><title>Recurso 1</title><g id="Capa_2" data-name="Capa 2"><g id="Capa_1-2" data-name="Capa 1"><path class="cls-1" d="M249.13,6V23.39h19.35v5.06H249.13V46.21h21.52v5.34H242.56V.65h28.09V6Z"/><path class="cls-1" d="M308.92,39.78H286.54l-4.26,11.77H275.2l18.85-50h7.44l18.77,50h-7.08ZM307,34.66,297.73,9l-9.31,25.71Z"/><path class="cls-1" d="M357.37,45.05a13,13,0,0,1-5.27,5.06,17.9,17.9,0,0,1-8.74,2,21,21,0,0,1-9-1.84,16,16,0,0,1-6.28-5.06,14.31,14.31,0,0,1-2.71-7.32h7a9.87,9.87,0,0,0,1.48,4.22,9.77,9.77,0,0,0,3.61,3.39,11.27,11.27,0,0,0,5.67,1.34q4.34,0,6.64-2.31a8,8,0,0,0,2.31-5.92,7.66,7.66,0,0,0-1.62-5.06,11.62,11.62,0,0,0-4-3.07A55,55,0,0,0,340,28a65.93,65.93,0,0,1-7.76-3,13.23,13.23,0,0,1-5-4.23,12.23,12.23,0,0,1-2.06-7.43,12.87,12.87,0,0,1,1.91-7,12.57,12.57,0,0,1,5.49-4.7A19.72,19.72,0,0,1,341,0q7.51,0,11.92,3.65A14,14,0,0,1,358,12.93H351a9.57,9.57,0,0,0-3.11-5.35A9.77,9.77,0,0,0,341,5.27a9.36,9.36,0,0,0-6.35,2.06,7.26,7.26,0,0,0-2.39,5.81,7.21,7.21,0,0,0,1.55,4.8,10.88,10.88,0,0,0,3.87,2.89A62.79,62.79,0,0,0,344,23.18a64.91,64.91,0,0,1,7.91,3A13.43,13.43,0,0,1,357,30.58a13,13,0,0,1,2.09,7.76A13.45,13.45,0,0,1,357.37,45.05Z"/><path class="cls-1" d="M407.7,39.53a21.23,21.23,0,0,1-9.13,8.88,30.93,30.93,0,0,1-14.48,3.14H367.91V.65h16.18a31.55,31.55,0,0,1,14.48,3.07,20.8,20.8,0,0,1,9.13,8.81,28,28,0,0,1,3.11,13.53A27.86,27.86,0,0,1,407.7,39.53Zm-8.88,1q5.26-5.13,5.27-14.45t-5.24-14.47q-5.22-5.16-15.27-5.16h-9.1V45.64h9.1Q393.56,45.64,398.82,40.51Z"/><path class="cls-1" d="M281.27,74.42A20,20,0,0,1,289,87.13H275.93a10.14,10.14,0,0,0-4-4.36,13.27,13.27,0,0,0-15.81,2.31Q252.6,89,252.6,95.73q0,7.29,3.72,11.19t10.58,3.9a12.52,12.52,0,0,0,12.42-9.32h-15.6V92.62h25.93v12.21a25,25,0,0,1-4.63,8.3,23.81,23.81,0,0,1-8.12,6.21,25.87,25.87,0,0,1-11.3,2.39,26.84,26.84,0,0,1-13.5-3.29,22.42,22.42,0,0,1-8.92-9.21A28.31,28.31,0,0,1,240,95.73a28.32,28.32,0,0,1,3.14-13.51,22.55,22.55,0,0,1,8.88-9.2,26.51,26.51,0,0,1,13.4-3.29Q275.06,69.73,281.27,74.42Z"/><path class="cls-1" d="M314.88,82.73a15.17,15.17,0,0,1,7.91-2.17V93.78h-3.54c-3.27,0-5.81.69-7.62,2.09s-2.71,3.76-2.71,7.08v18.34H296.58V81h12.34v7.59A17.46,17.46,0,0,1,314.88,82.73Z"/><path class="cls-1" d="M351.24,82.59a12.59,12.59,0,0,1,4.91,5.69V81h12.28v40.3H356.15V114a12.67,12.67,0,0,1-4.91,5.7,14.53,14.53,0,0,1-7.94,2.09,16.3,16.3,0,0,1-8.92-2.49,17,17,0,0,1-6.21-7.18,24.87,24.87,0,0,1-2.27-11,24.79,24.79,0,0,1,2.27-11A17.09,17.09,0,0,1,334.38,83a16.3,16.3,0,0,1,8.92-2.49A14.54,14.54,0,0,1,351.24,82.59ZM340.88,93.92a10.2,10.2,0,0,0-2.42,7.22,10.18,10.18,0,0,0,2.42,7.22,9.07,9.07,0,0,0,12.78-.07,10.07,10.07,0,0,0,2.49-7.15A10,10,0,0,0,353.66,94a9.1,9.1,0,0,0-12.78,0Z"/><path class="cls-1" d="M413.52,85.18q4.08,4.62,4.08,12.71v23.4H405.25v-22A8.87,8.87,0,0,0,403.12,93a7.39,7.39,0,0,0-5.67-2.28,7.71,7.71,0,0,0-5.95,2.39c-1.47,1.58-2.21,3.85-2.21,6.78v21.38H377V81h12.34v7.37a13.33,13.33,0,0,1,5.17-5.71,15.18,15.18,0,0,1,8.05-2.09A14,14,0,0,1,413.52,85.18Z"/><path class="cls-1" d="M281,144.59a23.52,23.52,0,0,1,8.27,13.86H276.21a12,12,0,0,0-4.44-5.56,12.45,12.45,0,0,0-7.11-2,10.87,10.87,0,0,0-8.74,4q-3.31,4-3.32,10.62T255.92,176a10.9,10.9,0,0,0,8.74,3.93,12.38,12.38,0,0,0,7.11-2,11.93,11.93,0,0,0,4.44-5.49h13.08A23.62,23.62,0,0,1,281,186.29q-6.39,5.16-16.14,5.17a25.45,25.45,0,0,1-13.07-3.29A22.31,22.31,0,0,1,243.1,179a31.33,31.33,0,0,1,0-27,22.34,22.34,0,0,1,8.71-9.2,25.45,25.45,0,0,1,13.07-3.29Q274.63,139.46,281,144.59Z"/><path class="cls-1" d="M319.47,152.32a12.56,12.56,0,0,1,4.91,5.7v-7.29h12.27V191H324.38v-7.29a12.56,12.56,0,0,1-4.91,5.7,14.56,14.56,0,0,1-7.94,2.1,16.23,16.23,0,0,1-8.92-2.5,16.87,16.87,0,0,1-6.21-7.18,27.65,27.65,0,0,1,0-22,17.09,17.09,0,0,1,6.21-7.15,16.3,16.3,0,0,1,8.92-2.49A14.56,14.56,0,0,1,319.47,152.32Zm-10.36,11.33a12,12,0,0,0,0,14.44,9,9,0,0,0,12.78-.07,11.55,11.55,0,0,0,0-14.33,9.13,9.13,0,0,0-12.78,0Z"/><path class="cls-1" d="M381.75,154.92q4.08,4.62,4.08,12.71V191H373.48v-22a8.89,8.89,0,0,0-2.13-6.32,7.38,7.38,0,0,0-5.67-2.27,7.72,7.72,0,0,0-6,2.38c-1.46,1.59-2.2,3.85-2.2,6.79V191H345.17V150.73h12.35v7.36a13.37,13.37,0,0,1,5.17-5.7,15.18,15.18,0,0,1,8.05-2.1A14,14,0,0,1,381.75,154.92Z"/><path class="cls-1" d="M417.24,152.32a12.56,12.56,0,0,1,4.91,5.7v-7.29h12.27V191H422.15v-7.29a12.56,12.56,0,0,1-4.91,5.7,14.56,14.56,0,0,1-7.94,2.1,16.25,16.25,0,0,1-8.92-2.5,16.94,16.94,0,0,1-6.21-7.18,27.76,27.76,0,0,1,0-22,17.16,17.16,0,0,1,6.21-7.15,16.33,16.33,0,0,1,8.92-2.49A14.56,14.56,0,0,1,417.24,152.32Zm-10.36,11.33a12,12,0,0,0,0,14.44,9,9,0,0,0,12.78-.07,11.55,11.55,0,0,0,0-14.33,9.13,9.13,0,0,0-12.78,0Z"/><path class="cls-1" d="M461.25,152.46a15.26,15.26,0,0,1,7.91-2.17v13.22h-3.54c-3.27,0-5.81.69-7.62,2.09s-2.71,3.76-2.71,7.08V191H443V150.73h12.34v7.58A17.64,17.64,0,0,1,461.25,152.46Z"/><path class="cls-1" d="M475.23,134.73a8.67,8.67,0,0,1,10.68,0,6,6,0,0,1,2,4.66,6,6,0,0,1-2,4.59,8.67,8.67,0,0,1-10.68,0,6,6,0,0,1-2-4.59A6,6,0,0,1,475.23,134.73Zm11.47,16V191H474.36V150.73Z"/><path class="cls-1" d="M518.48,152.32a12.56,12.56,0,0,1,4.91,5.7v-7.29h12.27V191H523.39v-7.29a12.56,12.56,0,0,1-4.91,5.7,14.56,14.56,0,0,1-7.94,2.1,16.23,16.23,0,0,1-8.92-2.5,16.87,16.87,0,0,1-6.21-7.18,27.65,27.65,0,0,1,0-22,17.09,17.09,0,0,1,6.21-7.15,16.3,16.3,0,0,1,8.92-2.49A14.56,14.56,0,0,1,518.48,152.32Zm-10.36,11.33a12,12,0,0,0,0,14.44A9,9,0,0,0,520.9,178a11.55,11.55,0,0,0,0-14.33,8.4,8.4,0,0,0-6.39-2.63A8.31,8.31,0,0,0,508.12,163.65Z"/><path class="cls-1" d="M559.73,178.68V191H547V178.68Z"/><path class="cls-1" d="M125.27,218.21,142,186h43.78V.23H0V186H110.48Zm37-55.75H23.52V23.75H162.23Z"/></g></g></svg>