<?xml version="1.0" encoding="UTF-8" standalone="no"?>
<svg
   xmlns:dc="http://purl.org/dc/elements/1.1/"
   xmlns:cc="http://creativecommons.org/ns#"
   xmlns:rdf="http://www.w3.org/1999/02/22-rdf-syntax-ns#"
   xmlns:svg="http://www.w3.org/2000/svg"
   xmlns="http://www.w3.org/2000/svg"
   xmlns:sodipodi="http://sodipodi.sourceforge.net/DTD/sodipodi-0.dtd"
   xmlns:inkscape="http://www.inkscape.org/namespaces/inkscape"
   inkscape:version="1.0 (1.0+r73)"
   sodipodi:docname="Marca EASD Gran Canaria versión 2.svg"
   viewBox="0 0 1169 826"
   height="826"
   width="1169"
   id="svg2"
   version="1.1">
  <metadata
     id="metadata8">
    <rdf:RDF>
      <cc:Work
         rdf:about="">
        <dc:format>image/svg+xml</dc:format>
        <dc:type
           rdf:resource="http://purl.org/dc/dcmitype/StillImage" />
        <dc:title></dc:title>
      </cc:Work>
    </rdf:RDF>
  </metadata>
  <defs
     id="defs6" />
  <sodipodi:namedview
     inkscape:current-layer="g10"
     inkscape:window-maximized="1"
     inkscape:window-y="27"
     inkscape:window-x="0"
     inkscape:cy="70.988783"
     inkscape:cx="287.22927"
     inkscape:zoom="0.34261501"
     showgrid="false"
     id="namedview4"
     inkscape:window-height="713"
     inkscape:window-width="1366"
     inkscape:pageshadow="2"
     inkscape:pageopacity="0"
     guidetolerance="10"
     gridtolerance="10"
     objecttolerance="10"
     borderopacity="1"
     bordercolor="#666666"
     pagecolor="#ffffff" />
  <g
     id="g10"
     inkscape:label="Image"
     inkscape:groupmode="layer">
    <path
       style="fill:#000000;fill-opacity:1"
       d="m 126.41895,549.39445 -10.82856,-19.98199 -40.749988,-0.018 -40.75,-0.018 v -118 -118 H 152.09039 270.0904 v 118 118 l -55.25001,0.0198 -55.25,0.0198 -10.85832,19.98024 c -5.97208,10.98905 -10.99922,19.98016 -11.17144,19.98016 -0.17221,0 -5.18597,-8.9919 -11.14168,-19.98199 z M 240.0904,411.37644 v -88 H 152.09039 64.090402 v 88 88 h 87.999988 88.00001 z m 119.90912,119.44649 c -16.08185,-4.95398 -24.09248,-26.47529 -15.98473,-42.94447 5.29406,-10.75377 13.54156,-15.62702 26.44719,-15.62702 12.51894,0 22.74763,6.15695 25.97772,15.63675 l 1.5293,4.48825 h -7.76498 c -6.99896,0 -7.99773,-0.24774 -10.12418,-2.51124 -4.50157,-4.79171 -14.27596,-5.213 -19.20057,-0.82758 -4.65413,4.14456 -6.28926,14.81211 -3.34905,21.84904 3.80045,9.09576 18.50809,11.09413 24.98648,3.39499 3.81284,-4.53129 3.36108,-4.90521 -5.9263,-4.90521 h -8.5 v -5.5 -5.5 h 15 15 v 8.32856 c 0,7.68975 -0.24449,8.69767 -3.18765,13.14102 -7.08825,10.7013 -21.29441,15.16908 -34.90323,10.97691 z m 46.09088,-22.44649 v -24.08762 l 7.25,0.29381 7.25,0.29381 0.5,3.41252 c 0.46811,3.19485 0.59568,3.29636 2,1.59152 1.86422,-2.26316 8.72497,-5.45269 11.79206,-5.48208 2.21897,-0.0213 2.28275,0.22521 2,7.72804 l -0.29206,7.75 -5,0.53796 c -10.00464,1.07642 -10.39316,1.77951 -10.75467,19.46204 l -0.24533,12 -7.25,0.29381 -7.25,0.29381 z m 45.38391,22.14239 c -15.72058,-7.35101 -15.72058,-37.09027 0,-44.22927 7.40456,-3.36255 17.50618,-1.76353 21.07844,3.33658 1.31857,1.88253 1.41038,1.80865 1.71539,-1.38036 l 0.32226,-3.36934 7.25,-0.29381 7.25,-0.29381 v 24.08762 24.08762 l -7.25,-0.29381 c -7.08258,-0.28703 -7.25731,-0.35732 -7.56644,-3.04402 l -0.31645,-2.75022 -3.53132,2.69348 c -4.706,3.58944 -13.01608,4.22495 -18.95188,1.44934 z m 20.36453,-14.63632 c 5.54208,-6.44305 1.7661,-17.09086 -6.45173,-18.1931 -9.38531,-1.25883 -14.38013,11.75746 -7.24844,18.88915 3.86788,3.86787 10.04437,3.55407 13.70017,-0.69605 z m 26.70044,15.2213 c -0.2686,-0.69995 -0.36697,-11.38745 -0.21862,-23.75 l 0.26974,-22.47737 7.25,-0.29381 7.25,-0.29381 v 3.7309 3.7309 l 2.75,-2.62347 c 7.29685,-6.96112 19.6939,-6.28495 25.54298,1.39318 3.87088,5.08134 4.82298,10.76482 4.49898,26.85611 l -0.29196,14.5 -7.17899,0.29238 -7.17899,0.29237 -0.32101,-15.4405 c -0.35037,-16.85271 -1.01392,-18.87449 -6.54139,-19.93113 -8.82063,-1.68617 -11.27962,2.9436 -11.27962,21.23722 v 14.04966 h -7.03138 c -4.7693,0 -7.1885,-0.40942 -7.51974,-1.27263 z m 91.55112,0.39623 c -17.29453,-5.68611 -25.62256,-25.35738 -18.09061,-42.731 10.25624,-23.65758 47.1042,-21.75278 54.14555,2.79898 l 0.80545,2.80842 -7.6802,-3e-5 c -7.5596,-3e-5 -7.72347,-0.0543 -10.43677,-3.45481 -6.34083,-7.94689 -19.29156,-6.09447 -22.86098,3.26994 -1.42685,3.74337 -1.03162,13.99574 0.66611,17.27878 4.59296,8.8818 16.72238,9.18788 23.48343,0.59259 2.89563,-3.6812 16.74102,-3.84117 16.13806,-0.18647 -1.13589,6.88494 -6.72244,13.68445 -14.55357,17.71347 -4.46806,2.29876 -17.05226,3.41076 -21.61647,1.91013 z m 52.90728,-1.45124 c -13.82385,-7.30086 -14.994,-33.63068 -1.88029,-42.30892 6.79263,-4.49515 16.39408,-4.40435 21.87421,0.20688 l 2.96006,2.49073 0.31937,-2.78053 c 0.31288,-2.72405 0.4666,-2.78649 7.56937,-3.07433 l 7.25,-0.29381 v 24.08762 24.08762 l -7.24325,-0.29381 c -7.12798,-0.28913 -7.25131,-0.34006 -7.75,-3.20015 -0.4771,-2.73628 -0.59452,-2.80035 -2.00675,-1.09509 -4.01777,4.85142 -14.06261,5.88663 -21.09272,2.17379 z m 20.16964,-13.59544 c 6.79401,-6.794 2.62241,-18.57692 -6.57692,-18.57692 -3.88041,0 -5.08258,0.47597 -7.08658,2.80576 -5.88306,6.83946 -1.38917,18.69424 7.08658,18.69424 2.70513,0 4.41282,-0.75897 6.57692,-2.92308 z m 27.37196,14.65045 c -0.2686,-0.69995 -0.36697,-11.38745 -0.21862,-23.75 l 0.26974,-22.47737 7.25,-0.29381 7.25,-0.29381 v 4.26632 c 0,4.15742 0.04,4.20924 1.56608,2.03042 5.58503,-7.97374 20.10984,-8.13671 26.70431,-0.29963 4.01153,4.76744 4.81054,9.4302 4.5059,26.29501 l -0.27629,15.2955 -7.17899,0.29238 -7.17899,0.29237 -0.32101,-15.51736 c -0.35691,-17.25265 -1.23692,-19.59925 -7.41593,-19.77494 -8.79698,-0.25011 -10.40508,3.09981 -10.40508,21.67543 v 13.53212 h -7.03138 c -4.7693,0 -7.1885,-0.40942 -7.51974,-1.27263 z m 65.79055,-0.38016 c -16.14558,-7.95874 -16.00194,-37.09931 0.2192,-44.46755 7.5214,-3.41649 16.94857,-1.64266 21.24188,3.99692 1.05027,1.3796 1.24066,1.05363 1.26769,-2.17039 l 0.0318,-3.79381 7.25,0.29381 7.25,0.29381 v 23.5 23.5 l -7.25,0.29381 -7.25,0.29381 -0.0304,-3.79381 c -0.0246,-3.07223 -0.22502,-3.45962 -1.05363,-2.03678 -2.94212,5.05211 -15.07914,7.34227 -21.67653,4.09018 z m 17.61554,-12.77221 c 6.84563,-3.54001 6.84563,-15.60999 0,-19.15 -4.17439,-2.15866 -7.48669,-1.72586 -11.0315,1.44142 -9.07187,8.10572 0.35085,23.23175 11.0315,17.70858 z m 29.14503,-9.575 v -24.08762 l 7.25,0.29381 7.25,0.29381 0.30441,3.65013 0.30441,3.65014 2.45516,-2.45516 c 2.73735,-2.73735 8.30106,-5.34511 11.4039,-5.34511 1.87082,0 2.03212,0.62517 2.03212,7.87617 v 7.87617 l -5.55942,0.46103 c -9.04292,0.74991 -9.8382,2.12559 -10.44058,18.06027 l -0.5,13.22636 -7.25,0.29381 -7.25,0.29381 z m 36.44888,22.72737 c -0.2686,-0.69995 -0.36697,-11.38745 -0.21862,-23.75 l 0.26974,-22.47737 7.25,-0.29381 7.25,-0.29381 v 24.04381 24.04381 h -7.03138 c -4.7693,0 -7.1885,-0.40942 -7.51974,-1.27263 z m 32.4584,-1.05501 c -13.81538,-7.29638 -14.69863,-34.45785 -1.38803,-42.68426 7.02642,-4.34256 16.28801,-3.85225 22.00213,1.16482 l 3.47862,3.05426 v -3.60359 -3.60359 h 7 7 v 24 24 h -7 -7 v -3.68709 -3.68709 l -2.75,2.62347 c -5.59107,5.33383 -14.01949,6.29072 -21.34272,2.42307 z m 20.16964,-13.59544 c 6.9626,-6.96259 1.91009,-20.00916 -7.27194,-18.77759 -5.57046,0.74716 -7.98932,3.4172 -8.48601,9.36722 -0.89085,10.67174 8.74326,16.42506 15.75795,9.41037 z m 24.92308,8.42308 v -7.5 h 7.5 7.5 v 7.5 7.5 h -7.5 -7.5 z M 843.59156,479.2365 c -8.98957,-2.45869 -6.48691,-14.86006 2.99884,-14.86006 9.48946,0 11.98324,12.33901 3,14.84378 -1.65,0.46006 -4.34948,0.46739 -5.99884,0.0163 z M 446.75707,463.70977 c -0.36667,-0.36666 -0.66667,-15.89166 -0.66667,-34.5 v -33.83333 h 6.5 6.5 v 3.61866 3.61865 l 3.09215,-3.02314 c 7.67103,-7.49986 22.37497,-5.58035 28.65658,3.74093 4.95892,7.35855 5.5023,19.76345 1.25043,28.54663 -5.26455,10.87512 -20.58509,14.19079 -29.48082,6.38023 l -3.51834,-3.08914 v 14.60359 14.60359 h -5.83333 c -3.20834,0 -6.13334,-0.3 -6.5,-0.66667 z m 31.93333,-35.73333 c 6.41343,-6.41343 3.92442,-19.25674 -4.16478,-21.49027 -9.12255,-2.51886 -15.92925,3.3836 -15.21938,13.19754 0.82033,11.34087 11.68711,15.98978 19.38416,8.29273 z m -124.94481,12.94135 c -6.13892,-2.18883 -12.53913,-9.93568 -12.63323,-15.29135 -0.042,-2.39014 12.71671,-1.64874 13.48878,0.78383 2.65499,8.36513 15.48926,7.99204 15.48926,-0.45027 0,-4.30681 -1.78976,-5.7435 -12,-9.63276 -14.07884,-5.36288 -17.68342,-9.48656 -16.75334,-19.16604 1.88504,-19.61803 38.38981,-20.31797 40.92843,-0.78476 0.31553,2.42779 0.12996,2.50854 -6.42509,2.79569 -5.54955,0.2431 -6.75,0.0208 -6.75,-1.25 0,-5.38071 -10.51405,-7.74317 -13.58718,-3.05298 -3.53513,5.39529 -0.78007,8.37949 11.97531,12.97131 9.47913,3.41239 14.18573,7.23972 15.66679,12.73995 4.12276,15.31075 -12.07394,26.51488 -29.39973,20.33738 z m 46.49405,-0.23782 c -7.36269,-3.62763 -8.60817,-7.43847 -8.98022,-27.47707 l -0.33099,-17.82646 h 6.08099 6.08098 v 14.09887 c 0,10.65582 0.37808,14.89562 1.54819,17.36144 2.90844,6.12907 10.36313,7.37619 15.68603,2.62417 l 3.26578,-2.91553 0.32106,-15.63035 0.32106,-15.63035 6.17894,0.29588 6.17894,0.29587 v 23 23 l -6.25,0.29772 -6.25,0.29771 v -3.7348 -3.73481 l -2.75,2.62347 c -5.189,4.95026 -14.5133,6.29991 -21.10076,3.05424 z m 113.35076,-0.2052 c -17.19806,-7.98738 -17.75294,-34.98837 -0.88681,-43.15312 14.55864,-7.04772 31.00132,0.90413 33.80512,16.3485 1.40743,7.75267 1.50966,7.70629 -16.9857,7.70629 H 513.0904 v 2.57692 c 0,8.55933 14.92129,11.54421 19.05911,3.81262 1.14161,-2.1331 1.95828,-2.38954 7.60987,-2.38954 7.42482,0 7.65789,0.51618 3.32089,7.35492 -5.53211,8.72324 -19.48921,12.38808 -29.48987,7.74341 z m 20.5,-26.55128 c 0,-8.41507 -12.31058,-12.24065 -18.19545,-5.65433 -5.41951,6.06548 -4.29149,7.10728 7.69545,7.10728 8.51554,0 10.5,-0.2746 10.5,-1.45295 z m 20,4.95295 v -23.5 h 6.5 6.5 v 3.60359 3.60359 l 3.47267,-3.04904 c 2.90457,-2.55024 8.80218,-5.13044 11.77733,-5.15256 0.4125,-0.003 0.75,3.14442 0.75,6.99442 v 7 h -5.07692 c -4.27801,0 -5.53691,0.45998 -8,2.92308 l -2.92308,2.92307 v 14.07693 14.07692 h -6.5 -6.5 z m 35,0 v -23.5 h 6 6 v 23.5 23.5 h -6 -6 z m 31.87963,20.70578 c -16.4273,-8.58173 -15.90631,-34.20535 0.86051,-42.32203 17.60154,-8.52076 37.34148,5.36657 34.8052,24.48596 -2.28672,17.23816 -19.92522,26.059 -35.66571,17.83607 z m 19.25839,-11.03779 c 9.88761,-8.83458 0.0748,-27.45485 -11.54774,-21.91243 -5.59521,2.66817 -7.16191,6.28712 -6.74108,15.57136 0.38328,8.45587 11.57792,12.33725 18.28882,6.34107 z m 23.86198,-9.66799 v -23.5 h 6.5 6.5 v 3.60359 3.60359 l 3.47267,-3.04904 c 2.90457,-2.55024 8.80218,-5.13044 11.77733,-5.15256 0.4125,-0.003 0.75,3.14442 0.75,6.99442 v 7 h -5.07692 c -4.27801,0 -5.53691,0.45998 -8,2.92308 l -2.92308,2.92307 v 14.07693 14.07692 h -6.5 -6.5 z m 62.5,21.8348 c -10.10449,-5.33895 -14.40152,-19.46302 -9.92147,-32.61124 4.45166,-13.06491 21.69497,-17.65006 31.08046,-8.26457 l 3.2798,3.2798 0.2806,-11.6194 0.28061,-11.61939 h 5.5 5.5 l 0.26425,31.25 0.26424,31.25 h -6.01424 -6.01425 v -4.13486 -4.13486 l -1.9728,2.50801 c -4.30353,5.47106 -15.92578,7.58453 -22.5272,4.09651 z m 19.19553,-11.29071 c 5.71504,-3.48469 6.86462,-13.51967 2.22454,-19.41857 -7.62453,-9.69302 -22.35824,-1.7016 -20.44051,11.08674 1.38334,9.2248 10.1644,13.24118 18.21597,8.33183 z m 39.33435,11.84332 c -14.02176,-5.59604 -18.92142,-26.96879 -8.82001,-38.47366 14.16764,-16.13605 40.79013,-6.84498 40.79013,14.23547 v 4.35078 h -17 c -18.32226,0 -18.08302,-0.0845 -15.45181,5.46031 1.75748,3.70362 5.0268,5.53969 9.864,5.53969 3.58322,0 8.58781,-3.24745 8.58781,-5.57258 0,-1.10088 1.60443,-1.42742 7.01342,-1.42742 h 7.01342 l -1.56647,3.75 c -4.44226,10.63443 -19.32383,16.57005 -30.43049,12.13741 z m 19.35486,-28.63741 c -2.11065,-8.88376 -14.66789,-10.75325 -19.4584,-2.89691 -3.31981,5.44443 -2.99377,5.64691 9.09271,5.64691 h 11.01905 z m 38.61526,-0.26476 v -30.23274 l 14.75,0.50423 c 17.83488,0.6097 22.63693,2.03496 29.29762,8.69565 10.83855,10.83855 10.88316,31.21208 0.092,42.00326 -6.82252,6.82252 -11.53237,8.23218 -29.3896,8.79635 l -14.75,0.466 v -30.23275 z m 30.99508,16.01727 c 6.2499,-3.18846 9.69904,-11.19095 8.44054,-19.58323 -1.43915,-9.59695 -7.80063,-14.4222 -20.05029,-15.20833 l -7.38533,-0.47396 v 19.26943 19.26944 l 7.64784,-0.69303 c 4.21473,-0.38193 9.30849,-1.54023 11.34724,-2.58032 z m 29.67159,13.33082 c -0.36667,-0.36666 -0.66667,-10.94166 -0.66667,-23.5 v -22.83333 h 6.5 6.5 v 23.5 23.5 h -5.83333 c -3.20834,0 -6.13334,-0.3 -6.5,-0.66667 z m 30.83333,-1.22337 c -4.62763,-2.13579 -7.91663,-5.42189 -9.43339,-9.42506 -1.68083,-4.4362 -1.41894,-4.6849 4.93339,-4.6849 3.50725,0 6,0.43434 6,1.04545 0,4.31573 10.59017,7.96438 13.8,4.75455 4.09881,-4.09881 0.85071,-6.90818 -12.39549,-10.72121 -10.6378,-3.06218 -14.64292,-8.27391 -12.39139,-16.12454 4.2122,-14.68709 30.23235,-13.70139 35.92326,1.36085 1.66537,4.40775 1.40444,4.6849 -4.4107,4.6849 -5.01123,0 -5.59939,-0.24186 -6.95284,-2.85915 -3.07948,-5.95506 -12.52856,-6.32248 -13.3711,-0.51993 -0.4266,2.938 1.69505,4.29118 10.94418,6.98017 10.01964,2.913 12.59466,4.53378 14.51857,9.13835 5.40192,12.92861 -11.9564,23.3895 -27.16449,16.37052 z m 47,-0.006 c -19.6169,-9.08233 -16.4563,-40.5164 4.52625,-45.01635 13.5102,-2.89741 25.49445,4.35616 28.15515,17.04106 1.9097,9.10447 2.3476,8.87115 -16.64995,8.87115 l -16.53145,1.8e-4 v 2.57692 c 0,8.60837 16.90905,11.58666 19.4965,3.43405 0.5523,-1.74006 1.5048,-2.01097 7.0709,-2.01097 7.1463,0 7.3521,0.27723 4.4418,5.98191 -4.9173,9.63884 -19.78909,14.08548 -30.5092,9.12223 z m 20.5,-27.38163 c 0,-8.47375 -13.26966,-11.28032 -18.98436,-4.01526 -4.29594,5.46157 -3.17504,6.29293 8.48436,6.29293 10.2598,0 10.5,-0.0521 10.5,-2.27749 z m 20.6667,28.61082 c -0.3667,-0.36648 -0.6667,-10.94148 -0.6667,-23.49982 v -22.83333 h 6.5 6.5 v 3.40121 3.40121 l 3.0906,-2.88707 c 8.074,-7.54226 21.7212,-5.50279 27.3553,4.08805 1.8221,3.1017 2.0915,5.50125 2.3851,21.2466 l 0.331,17.75 h -6.081 -6.081 l -0.011,-12.25 c -0.018,-20.11488 -1.9266,-24.75 -10.1911,-24.75 -9.2047,0 -10.7979,3.31249 -10.7979,22.45034 v 14.54966 h -5.8333 c -3.2084,0 -6.1334,-0.3 -6.5,-0.66667 z m 66.3333,-0.92745 c -17.4043,-7.53866 -18.5428,-33.80547 -1.8588,-42.88604 17.5723,-9.56406 36.9604,2.83947 35.6874,22.83106 -1.0442,16.39869 -18.4487,26.71677 -33.8286,20.05498 z m 16.8406,-11.00661 c 4.3911,-3.07566 5.9292,-14.04909 2.667,-19.0278 -4.3204,-6.59383 -14.4876,-6.63033 -18.6106,-0.0668 -7.1609,11.39981 5.4192,26.46621 15.9436,19.09462 z m -75.4502,-41.60102 c 1.4281,-7.14059 7.3118,-9.86979 14.4867,-6.71977 5.5446,2.43425 7.3315,2.41851 8.8908,-0.0783 1.1607,-1.85859 5.1601,-2.73871 6.474,-1.42473 2.6379,2.63782 -4.4926,11.42473 -9.2709,11.42473 -1.6046,0 -5.0099,-1.0125 -7.5672,-2.25 l -4.6497,-2.25 -1.499,2.25 c -1.0001,1.50105 -2.4986,2.25 -4.5021,2.25 -2.8454,0 -2.9694,-0.16802 -2.3626,-3.20193 z m -439.15494,0.16539 c -5.21754,-2.09612 -4.78584,-9.66442 0.68041,-11.92861 6.14284,-2.54445 12.29951,2.63825 10.07731,8.48308 -1.43247,3.76768 -6.17497,5.28663 -10.75772,3.44553 z m 313.3994,-1.03604 c -5.05773,-3.97841 -2.01718,-11.32742 4.68656,-11.32742 7.17214,0 10.35545,7.14921 5.04372,11.32742 -1.44917,1.13992 -3.63848,2.07258 -4.86514,2.07258 -1.22666,0 -3.41597,-0.93266 -4.86514,-2.07258 z m 107.97724,-16.54154 c 0.8306,-1.98776 3.2114,-7.2966 5.2908,-11.79741 l 3.7807,-8.1833 -6.8922,-15.95258 c -3.7907,-8.77393 -8.2077,-19.00957 -9.8157,-22.74587 l -2.9234,-6.79328 7.0835,0.29328 7.0835,0.29328 5.6583,14.18464 c 3.1121,7.80154 5.8902,14.41651 6.1736,14.69992 0.2834,0.28341 2.9854,-6.09968 6.0044,-14.18463 l 5.4891,-14.69993 6.7277,-0.29569 c 3.7002,-0.16263 6.7276,-0.0581 6.7276,0.23236 0,0.44306 -7.1082,17.75208 -25.1791,61.31333 l -3.0075,7.25 h -6.8557 -6.8556 z M 447.65004,352.2188 c -19.60046,-2.90027 -25.38323,-31.59942 -8.72437,-43.29796 12.23533,-8.59215 32.50018,-1.95333 35.73106,11.7056 l 0.65049,2.75 h -6.4479 c -5.94234,0 -6.53906,-0.20009 -7.61064,-2.55196 -2.53113,-5.55523 -11.8303,-6.55496 -16.33824,-1.75648 -3.45512,3.67781 -3.42041,15.97602 0.0555,19.676 4.55157,4.84492 13.71343,3.82333 16.2827,-1.8156 1.07158,-2.35187 1.6683,-2.55196 7.61064,-2.55196 h 6.4479 l -0.68636,2.75 C 471.91305,347.97552 460.8418,354.17079 447.65,352.2188 Z m 48.12559,0.10777 c -10.84337,-1.86566 -13.68523,-8.12906 -13.68523,-30.16202 v -16.78811 h 6 6 v 14.03212 c 0,18.88566 1.86944,22.96788 10.51805,22.96788 8.40436,0 10.48195,-4.53916 10.48195,-22.90113 v -14.09887 h 6 6 v 23.5 23.5 h -6 -6 v -3.60359 -3.60359 l -3.51834,3.08914 c -3.12842,2.74679 -5.17491,3.62178 -10.48166,4.48151 -0.825,0.13366 -3.21665,-0.0523 -5.31477,-0.41334 z m 57.87441,-0.10777 c -19.60046,-2.90027 -25.38323,-31.59942 -8.72437,-43.29796 6.1386,-4.31077 18.33017,-4.93621 25.16473,-1.29096 6.737,3.59322 10.3131,9.29993 10.82041,17.26713 l 0.41258,6.47943 h -17.22348 c -15.29473,0 -17.15551,0.17714 -16.6165,1.58179 0.33385,0.86998 0.60699,2.15862 0.60699,2.86363 0,0.70502 1.18636,2.46822 2.63636,3.91822 4.13217,4.13217 10.5679,3.75985 14.92841,-0.86364 4.27383,-4.53158 16.18528,-5.53163 14.8886,-1.25 -3.24084,10.7012 -13.9438,16.50856 -26.89373,14.59236 z m 15.01112,-29.59236 c -2.27066,-9.66524 -18.95673,-9.47361 -20.81342,0.23904 l -0.48,2.51096 h 10.96974 10.96974 z m 385.92924,29.71799 c -11.89913,-1.75623 -18.72919,-10.31441 -18.72919,-23.46799 0,-15.17047 8.37467,-23.5 23.62733,-23.5 12.79879,0 21.68541,8.27264 21.98006,20.46145 l 0.1218,5.03855 -16.75,0.27418 -16.75,0.27418 v 2.55274 c 0,7.27984 12.10786,11.38195 17.54545,5.94435 1.35,-1.35 2.45455,-2.925 2.45455,-3.5 0,-0.62004 2.64493,-1.04545 6.5,-1.04545 7.37127,0 7.64559,0.41932 4.22506,6.45841 -4.37952,7.73224 -14.19406,11.99009 -24.22506,10.50958 z m 14.5,-28.53373 c 0,-8.01433 -11.93508,-11.65303 -18.07692,-5.51118 -5.78785,5.78784 -4.40769,7.07692 7.57692,7.07692 8.86261,0 10.5,-0.24417 10.5,-1.56574 z m -626,-1.43426 v -30 h 17.5 17.5 v 5.5 5.5 h -11.5 -11.5 v 7 7 h 10.5 10.5 v 5 5 h -10.5 -10.5 v 7.5 7.5 h 11.5 11.5 v 5 5 h -17.5 -17.5 z m 51.24024,27.88988 c -4.79032,-2.37117 -7.95799,-6.22864 -8.87341,-10.80572 l -0.61683,-3.08416 h 5.59932 c 5.15768,0 5.71674,0.22707 7.08801,2.87882 2.60058,5.02896 11.70154,6.10525 13.74277,1.62524 1.73339,-3.80437 -0.89075,-5.86052 -10.83061,-8.48636 -11.80783,-3.1193 -14.84949,-5.85791 -14.84949,-13.37001 0,-9.6155 6.29299,-14.12923 18.81705,-13.4968 10.03145,0.50657 15.30572,4.46413 18.12365,13.59911 1.28404,4.1625 -10.27401,3.23595 -12.95488,-1.03852 -2.71702,-4.33212 -10.93676,-5.33922 -12.37943,-1.51675 -1.43445,3.80066 0.42901,5.58664 8.15851,7.81934 3.9793,1.14944 8.48171,2.57487 10.00535,3.16762 10.38552,4.04034 10.44595,19.11415 0.094,23.43949 -5.15119,2.15231 -16.06146,1.7746 -21.12398,-0.7313 z M 589.0904,321.37644 v -31 h 6 6 v 31 31 h -6 -6 z m 29.83989,28.11342 c -6.61499,-4.19511 -9.33989,-10.20905 -9.33989,-20.61342 0,-10.40437 2.7249,-16.41831 9.33989,-20.61342 7.83376,-4.96802 19.90782,-3.51587 24.86062,2.99 1.05107,1.38065 1.24064,1.06264 1.26769,-2.12658 l 0.0318,-3.75 h 6.5 6.5 v 23.5 23.5 h -6.5 -6.5 v -3.68709 -3.68709 l -2.75,2.5649 c -6.40154,5.97067 -15.8088,6.7433 -23.41011,1.9227 z m 22.76011,-11.51342 c 7.93599,-7.93599 2.69412,-21.63996 -8.25,-21.5682 -7.45689,0.0489 -11.35,4.25293 -11.35,12.25645 0,8.59828 3.62769,12.65411 11.35,12.68951 4.19712,0.0192 5.30769,-0.43545 8.25,-3.37776 z m 53.88141,13.00643 c -12.71702,-5.54116 -16.20414,-27.88007 -6.14117,-39.34116 7.17105,-8.16738 20.69394,-8.72221 27.77711,-1.13965 l 2.88265,3.08589 V 301.9822 290.37644 h 6 6 v 31 31 h -6 -6 v -4.10576 -4.10575 l -2.88265,3.08589 c -4.80862,5.14764 -14.53624,6.82559 -21.63594,3.73205 z m 19.80407,-11.9952 c 8.4191,-7.80256 3.64034,-22.61123 -7.29664,-22.61123 -8.17877,0 -12.7308,5.72499 -11.71534,14.73413 1.04882,9.30506 12.39759,14.00711 19.01198,7.8771 z m 37.21452,11.49291 c -17.38911,-8.0509 -16.92542,-36.18106 0.71788,-43.55109 15.73482,-6.57281 32.75197,4.17278 32.77654,20.69695 l 0.006,3.75 h -17.125 -17.125 l 0.62393,3.25 c 1.42571,7.42642 11.83155,10.63543 17.17152,5.29545 1.35,-1.35 2.45455,-2.925 2.45455,-3.5 0,-0.62004 2.64493,-1.04545 6.5,-1.04545 6.86223,0 7.12191,0.22378 5.43638,4.6849 -2.84065,7.5184 -10.94956,12.27118 -20.93638,12.27118 -4.22018,0 -7.90297,-0.64956 -10.5,-1.85194 z m 20.5,-27.64959 c 0,-8.59927 -15.31678,-10.54401 -19.48965,-2.47457 -2.51502,4.86352 -2.23477,5.02002 8.98965,5.02002 h 10.5 z m 35,28.47508 c 0,-0.9638 7.40539,-21.31602 18.98616,-52.17963 l 2.15754,-5.75 h 6.8563 6.8563 l 2.16647,5.75 c 8.51709,22.60518 18.97723,51.39915 18.97723,52.23927 0,0.57472 -2.73569,1.01073 -6.34167,1.01073 h -6.34168 l -1.81665,-6 -1.81665,-6 h -11.61192 -11.61191 l -1.97976,5.75 -1.97976,5.75 -6.25,0.29772 c -4.26286,0.20306 -6.25,-0.073 -6.25,-0.86809 z m 32.29137,-31.42963 c -1.98961,-5.775 -3.95424,-10.5 -4.36584,-10.5 -0.4116,0 -2.33059,4.725 -4.26443,10.5 l -3.51606,10.5 h 7.8819 7.8819 z m 29.70863,9 v -23.5 h 6.5 6.5 v 3.68709 3.68709 l 2.75,-2.5649 c 3.73465,-3.48328 6.54262,-4.80928 10.18426,-4.80928 h 3.06574 v 6.37617 6.37617 l -5.66944,0.47015 c -9.3716,0.77717 -10.33056,2.61825 -10.33056,19.83327 v 13.94424 h -6.5 -6.5 z m 46.6193,22.46558 c -7.52573,-2.25331 -9.60563,-7.38408 -9.61372,-23.71558 l -0.006,-11.25 h -3 c -2.9697,0 -3,-0.0556 -3,-5.5 0,-5.44444 0.0303,-5.5 3,-5.5 2.9697,0 3,-0.0556 3,-5.5 v -5.5 h 6.5 6.5 v 5.5 5.5 h 5 5 v 5.5 5.5 h -5 -5 v 11.3 c 0,12.70769 0.44907,13.7 6.2,13.7 h 3.8 v 5.5 5.5 l -5.25,-0.086 c -2.8875,-0.0473 -6.54631,-0.47409 -8.1307,-0.94847 z"
       id="path923" />
  </g>
</svg>
