<?xml version="1.0" encoding="utf-8"?>
<!-- Generator: Adobe Illustrator 22.0.0, SVG Export Plug-In . SVG Version: 6.00 Build 0)  -->
<svg version="1.1" id="Capa_1" xmlns="http://www.w3.org/2000/svg" xmlns:xlink="http://www.w3.org/1999/xlink" x="0px" y="0px"
	 viewBox="0 0 565.1 230.2" style="enable-background:new 0 0 565.1 230.2;" xml:space="preserve">
<style type="text/css">
	.st0{fill:#FFFFFF;}
</style>
<g>
	<g>
		<path class="st0" d="M252.6,11.2v17.4H272v5.1h-19.4v17.8h21.5v5.3h-28.1V5.8h28.1v5.3H252.6z"/>
		<path class="st0" d="M312.4,45H290l-4.3,11.8h-7.1l18.8-50h7.4l18.8,50h-7.1L312.4,45z M310.5,39.8l-9.3-25.7l-9.3,25.7H310.5z"/>
		<path class="st0" d="M360.9,50.2c-1.2,2.1-2.9,3.8-5.3,5.1c-2.4,1.3-5.3,2-8.7,2c-3.4,0-6.4-0.6-9-1.8c-2.6-1.2-4.7-2.9-6.3-5.1
			c-1.6-2.1-2.5-4.6-2.7-7.3h7c0.1,1.4,0.6,2.9,1.5,4.2c0.8,1.4,2,2.5,3.6,3.4c1.6,0.9,3.5,1.3,5.7,1.3c2.9,0,5.1-0.8,6.6-2.3
			c1.5-1.5,2.3-3.5,2.3-5.9c0-2.1-0.5-3.8-1.6-5.1c-1.1-1.3-2.4-2.3-4-3.1c-1.6-0.7-3.8-1.5-6.5-2.4c-3.2-1.1-5.8-2.1-7.8-3
			c-1.9-0.9-3.6-2.3-5-4.2c-1.4-1.9-2.1-4.4-2.1-7.4c0-2.6,0.6-5,1.9-7c1.3-2,3.1-3.6,5.5-4.7c2.4-1.1,5.2-1.7,8.4-1.7
			c5,0,9,1.2,11.9,3.6c2.9,2.4,4.6,5.5,5.1,9.3h-7.1c-0.4-2-1.4-3.8-3.1-5.3c-1.7-1.5-4-2.3-6.9-2.3c-2.7,0-4.8,0.7-6.4,2.1
			c-1.6,1.4-2.4,3.3-2.4,5.8c0,2,0.5,3.6,1.6,4.8c1,1.2,2.3,2.2,3.9,2.9c1.5,0.7,3.7,1.5,6.4,2.3c3.3,1.1,5.9,2.1,7.9,3
			c2,1,3.7,2.4,5.1,4.4c1.4,2,2.1,4.5,2.1,7.8C362.6,45.9,362,48.2,360.9,50.2z"/>
		<path class="st0" d="M411.2,44.7c-2.1,3.8-5.1,6.8-9.1,8.9c-4,2.1-8.8,3.1-14.5,3.1h-16.2V5.8h16.2c5.6,0,10.5,1,14.5,3.1
			c4,2,7.1,5,9.1,8.8c2.1,3.8,3.1,8.3,3.1,13.5C414.3,36.4,413.3,40.9,411.2,44.7z M402.3,45.7c3.5-3.4,5.3-8.2,5.3-14.4
			c0-6.2-1.7-11-5.2-14.5c-3.5-3.4-8.6-5.2-15.3-5.2H378v39.2h9.1C393.7,50.8,398.8,49.1,402.3,45.7z"/>
		<path class="st0" d="M284.8,79.6c4.1,3.1,6.7,7.4,7.7,12.7h-13.1c-0.9-1.8-2.2-3.3-4-4.4c-1.8-1.1-3.9-1.6-6.4-1.6
			c-3.9,0-7,1.3-9.4,3.9c-2.4,2.6-3.5,6.2-3.5,10.6c0,4.9,1.2,8.6,3.7,11.2c2.5,2.6,6,3.9,10.6,3.9c2.9,0,5.5-0.8,7.7-2.4
			c2.2-1.6,3.8-3.9,4.7-6.9h-15.6v-8.9h25.9V110c-1,3-2.5,5.8-4.6,8.3c-2.1,2.6-4.8,4.6-8.1,6.2c-3.3,1.6-7.1,2.4-11.3,2.4
			c-5.1,0-9.7-1.1-13.5-3.3c-3.9-2.2-6.8-5.3-8.9-9.2c-2.1-3.9-3.1-8.5-3.1-13.5c0-5.1,1-9.6,3.1-13.5c2.1-3.9,5.1-7,8.9-9.2
			c3.8-2.2,8.3-3.3,13.4-3.3C275.4,74.9,280.6,76.5,284.8,79.6z"/>
		<path class="st0" d="M318.4,87.9c2.4-1.4,5.1-2.2,7.9-2.2V99h-3.5c-3.3,0-5.8,0.7-7.6,2.1c-1.8,1.4-2.7,3.8-2.7,7.1v18.3h-12.3
			V86.2h12.3v7.6C314,91.3,315.9,89.4,318.4,87.9z"/>
		<path class="st0" d="M354.7,87.8c2.2,1.4,3.8,3.3,4.9,5.7v-7.3h12.3v40.3h-12.3v-7.3c-1.1,2.4-2.7,4.3-4.9,5.7
			c-2.2,1.4-4.9,2.1-7.9,2.1c-3.3,0-6.3-0.8-8.9-2.5c-2.6-1.7-4.7-4.1-6.2-7.2c-1.5-3.1-2.3-6.8-2.3-11c0-4.2,0.8-7.9,2.3-11
			c1.5-3.1,3.6-5.5,6.2-7.1c2.6-1.7,5.6-2.5,8.9-2.5C349.9,85.7,352.5,86.4,354.7,87.8z M344.4,99.1c-1.6,1.7-2.4,4.1-2.4,7.2
			c0,3.1,0.8,5.5,2.4,7.2c1.6,1.7,3.7,2.6,6.4,2.6c2.6,0,4.7-0.9,6.4-2.7c1.7-1.8,2.5-4.2,2.5-7.1c0-3-0.8-5.4-2.5-7.2
			c-1.7-1.8-3.8-2.6-6.4-2.6C348.1,96.5,346,97.4,344.4,99.1z"/>
		<path class="st0" d="M417,90.4c2.7,3.1,4.1,7.3,4.1,12.7v23.4h-12.3v-22c0-2.7-0.7-4.8-2.1-6.3c-1.4-1.5-3.3-2.3-5.7-2.3
			c-2.5,0-4.5,0.8-6,2.4c-1.5,1.6-2.2,3.9-2.2,6.8v21.4h-12.3V86.2h12.3v7.4c1.2-2.4,2.9-4.3,5.2-5.7c2.3-1.4,5-2.1,8-2.1
			C410.6,85.7,414.3,87.3,417,90.4z"/>
		<path class="st0" d="M284.5,149.8c4.3,3.4,7,8,8.3,13.9h-13.1c-1-2.4-2.4-4.2-4.4-5.6c-2-1.3-4.4-2-7.1-2c-3.6,0-6.5,1.3-8.7,4
			c-2.2,2.6-3.3,6.2-3.3,10.6c0,4.4,1.1,8,3.3,10.6c2.2,2.6,5.1,3.9,8.7,3.9c2.7,0,5.1-0.7,7.1-2c2-1.3,3.5-3.2,4.4-5.5h13.1
			c-1.3,5.8-4,10.4-8.3,13.8c-4.3,3.4-9.6,5.2-16.1,5.2c-5,0-9.3-1.1-13.1-3.3c-3.8-2.2-6.7-5.3-8.7-9.2c-2-3.9-3.1-8.5-3.1-13.5
			c0-5.1,1-9.6,3.1-13.5c2-3.9,4.9-7,8.7-9.2c3.8-2.2,8.1-3.3,13.1-3.3C274.9,144.6,280.3,146.4,284.5,149.8z"/>
		<path class="st0" d="M323,157.5c2.2,1.4,3.9,3.3,4.9,5.7v-7.3h12.3v40.3h-12.3v-7.3c-1.1,2.4-2.7,4.3-4.9,5.7
			c-2.2,1.4-4.9,2.1-7.9,2.1c-3.3,0-6.3-0.8-8.9-2.5c-2.6-1.7-4.7-4.1-6.2-7.2c-1.5-3.1-2.3-6.8-2.3-11c0-4.2,0.8-7.9,2.3-11
			c1.5-3.1,3.6-5.5,6.2-7.1c2.6-1.7,5.6-2.5,8.9-2.5C318.1,155.4,320.7,156.1,323,157.5z M312.6,168.8c-1.6,1.7-2.4,4.1-2.4,7.2
			c0,3.1,0.8,5.5,2.4,7.2c1.6,1.7,3.7,2.6,6.4,2.6c2.6,0,4.7-0.9,6.4-2.7c1.7-1.8,2.5-4.2,2.5-7.1c0-3-0.8-5.4-2.5-7.2
			c-1.7-1.8-3.8-2.6-6.4-2.6C316.3,166.2,314.2,167.1,312.6,168.8z"/>
		<path class="st0" d="M385.2,160.1c2.7,3.1,4.1,7.3,4.1,12.7v23.4H377v-22c0-2.7-0.7-4.8-2.1-6.3c-1.4-1.5-3.3-2.3-5.7-2.3
			c-2.5,0-4.5,0.8-6,2.4c-1.5,1.6-2.2,3.9-2.2,6.8v21.4h-12.3v-40.3H361v7.4c1.2-2.4,2.9-4.3,5.2-5.7c2.3-1.4,5-2.1,8.1-2.1
			C378.9,155.5,382.5,157,385.2,160.1z"/>
		<path class="st0" d="M420.7,157.5c2.2,1.4,3.9,3.3,4.9,5.7v-7.3h12.3v40.3h-12.3v-7.3c-1.1,2.4-2.7,4.3-4.9,5.7
			c-2.2,1.4-4.9,2.1-7.9,2.1c-3.3,0-6.3-0.8-8.9-2.5c-2.6-1.7-4.7-4.1-6.2-7.2c-1.5-3.1-2.3-6.8-2.3-11c0-4.2,0.8-7.9,2.3-11
			c1.5-3.1,3.6-5.5,6.2-7.1c2.6-1.7,5.6-2.5,8.9-2.5C415.9,155.4,418.5,156.1,420.7,157.5z M410.4,168.8c-1.6,1.7-2.4,4.1-2.4,7.2
			c0,3.1,0.8,5.5,2.4,7.2c1.6,1.7,3.7,2.6,6.4,2.6c2.6,0,4.7-0.9,6.4-2.7c1.7-1.8,2.5-4.2,2.5-7.1c0-3-0.8-5.4-2.5-7.2
			c-1.7-1.8-3.8-2.6-6.4-2.6C414.1,166.2,412,167.1,410.4,168.8z"/>
		<path class="st0" d="M464.7,157.6c2.4-1.4,5.1-2.2,7.9-2.2v13.2h-3.5c-3.3,0-5.8,0.7-7.6,2.1c-1.8,1.4-2.7,3.8-2.7,7.1v18.3h-12.3
			v-40.3h12.3v7.6C460.3,161,462.3,159.1,464.7,157.6z"/>
		<path class="st0" d="M478.7,139.9c1.3-1.2,3.1-1.8,5.3-1.8c2.2,0,4,0.6,5.3,1.8c1.3,1.2,2,2.8,2,4.7c0,1.8-0.7,3.4-2,4.6
			c-1.3,1.2-3.1,1.8-5.3,1.8c-2.2,0-4-0.6-5.3-1.8c-1.3-1.2-2-2.8-2-4.6C476.7,142.7,477.4,141.1,478.7,139.9z M490.2,155.9v40.3
			h-12.3v-40.3H490.2z"/>
		<path class="st0" d="M522,157.5c2.2,1.4,3.9,3.3,4.9,5.7v-7.3h12.3v40.3h-12.3v-7.3c-1.1,2.4-2.7,4.3-4.9,5.7
			c-2.2,1.4-4.9,2.1-7.9,2.1c-3.3,0-6.3-0.8-8.9-2.5c-2.6-1.7-4.7-4.1-6.2-7.2c-1.5-3.1-2.3-6.8-2.3-11c0-4.2,0.8-7.9,2.3-11
			c1.5-3.1,3.6-5.5,6.2-7.1c2.6-1.7,5.6-2.5,8.9-2.5C517.1,155.4,519.8,156.1,522,157.5z M511.6,168.8c-1.6,1.7-2.4,4.1-2.4,7.2
			c0,3.1,0.8,5.5,2.4,7.2c1.6,1.7,3.7,2.6,6.4,2.6c2.6,0,4.7-0.9,6.4-2.7c1.7-1.8,2.5-4.2,2.5-7.1c0-3-0.8-5.4-2.5-7.2
			c-1.7-1.8-3.8-2.6-6.4-2.6C515.4,166.2,513.2,167.1,511.6,168.8z"/>
		<path class="st0" d="M563.2,183.9v12.3h-12.8v-12.3H563.2z"/>
	</g>
</g>
<path class="st0" d="M128.8,223.4l16.7-32.2h40.4h3.3v-3.3V8.7V5.4h-3.3H6.8H3.5v3.3v179.1v3.3h3.3H114L128.8,223.4z M165.7,167.6
	h-3.5h-25.7h-11.3h-5.6h-9.8H82.1H27V28.9h138.7V167.6z"/>
</svg>
