<svg id="Capa_1" data-name="Capa 1" xmlns="http://www.w3.org/2000/svg" viewBox="0 0 24.46 24.46"><title>insta</title><path d="M22.71,14.89A6.27,6.27,0,1,0,29,21.16,6.26,6.26,0,0,0,22.71,14.89Zm0,10.34a4.08,4.08,0,1,1,4.08-4.07,4.07,4.07,0,0,1-4.08,4.07Zm8-10.6a1.46,1.46,0,1,1-1.46-1.46A1.46,1.46,0,0,1,30.7,14.63Zm4.15,1.49a7.26,7.26,0,0,0-2-5.13,7.26,7.26,0,0,0-5.13-2c-2-.12-8.07-.12-10.09,0a7.27,7.27,0,0,0-5.12,2,7.24,7.24,0,0,0-2,5.12c-.11,2-.11,8.07,0,10.09a7.24,7.24,0,0,0,2,5.12,7.3,7.3,0,0,0,5.12,2c2,.11,8.08.11,10.09,0a7.22,7.22,0,0,0,5.13-2,7.23,7.23,0,0,0,2-5.12c.12-2,.12-8.07,0-10.08Zm-2.6,12.25a4.12,4.12,0,0,1-2.33,2.32c-1.61.64-5.43.49-7.21.49s-5.6.14-7.21-.49a4.1,4.1,0,0,1-2.32-2.32c-.64-1.61-.49-5.43-.49-7.21s-.14-5.61.49-7.21a4.15,4.15,0,0,1,2.32-2.33c1.61-.63,5.43-.49,7.21-.49s5.61-.14,7.21.49A4.17,4.17,0,0,1,32.25,14c.63,1.61.49,5.43.49,7.21S32.88,26.76,32.25,28.37Z" transform="translate(-10.48 -8.93)"/></svg>