<?xml version="1.0" encoding="utf-8"?>
<!-- Generator: Adobe Illustrator 22.0.1, SVG Export Plug-In . SVG Version: 6.00 Build 0)  -->
<svg version="1.1" id="Capa_1" xmlns="http://www.w3.org/2000/svg" xmlns:xlink="http://www.w3.org/1999/xlink" x="0px" y="0px"
	 viewBox="0 0 118.7 29.9" style="enable-background:new 0 0 118.7 29.9;" xml:space="preserve">
<style type="text/css">
	.st0{fill:#FFED00;}
</style>
<rect y="0" class="st0" width="119.3" height="29.1"/>
<g>
	<path d="M11,29V7h7.4L21,20l0,0L23.8,7H31V29h-5.1l0.5-17.2l0,0L22.9,29h-3.8l-3.6-17.2l0,0L15.9,29H11z"/>
	<path d="M33.8,29V7h11.8v4.4H39v4.1h6.4V20H39v4.7h7v4.4L33.8,29L33.8,29z"/>
	<path d="M48.2,29V7h5.2v17.5h6.2V29H48.2z"/>
	<path d="M63,29L58.3,7h5.1L66,22.4l0,0L68.6,7h5.1L69.1,29H63z"/>
	<path d="M73.4,29L78.1,7h6.2L89.2,29H84l-0.7-4.3h-4.1L78.6,29H73.4z M81.4,11L81.4,11l-1.6,9.8h2.9L81.4,11z"/>
	<path d="M90.5,29V7h5.2v17.5h6.2V29H90.5z"/>
</g>
</svg>
