<?xml version="1.0" encoding="utf-8"?>
<!-- Generator: Adobe Illustrator 22.0.1, SVG Export Plug-In . SVG Version: 6.00 Build 0)  -->
<svg version="1.1" id="Capa_1" xmlns="http://www.w3.org/2000/svg" xmlns:xlink="http://www.w3.org/1999/xlink" x="0px" y="0px"
	 viewBox="0 0 307.1 166.7" style="enable-background:new 0 0 307.1 166.7;" xml:space="preserve">
<style type="text/css">
	.st0{fill:#FFED00;}
	.st1{fill:none;stroke:#000000;stroke-width:3;stroke-linecap:round;stroke-linejoin:bevel;stroke-miterlimit:10;}
</style>
<rect class="st0" width="307.1" height="166.4"/>
<path d="M49.1,140.9v-111h36.7l13.5,65.6h0.3l13.9-65.6h36.4v111H125l2.7-87h-0.3l-18.4,87H89.6l-17.9-87h-0.3l2.4,87H49.1z"/>
<path d="M181.4,113h0.3l8.4-53.6H213l-18.2,82.9h-26.9l-18.1-82.9h23.7L181.4,113z"/>
<path d="M182.3,24.4c0,0,0,4,6.9-2.1c6.8-6.1,9.5-1.4,9.5-1.4s-6.8,8.4,4.4,12.2c5.7,1.9,7.9,2.5,8.6,2.7l-4.1,5.9l5.8,1l-0.1,11.9
	l18-1c0,0,0.7,2.5,1.4,6.1l-1.4-3l-6.3,28.1c-3.7,0.9-3.7,4.9-2.1,9.6l-4.4,19.6l5.7,23.8l-4.7-1c0,0,0.7-10-10.2-11
	s3.2,16.1,3.2,16.1l5.8,1.6l21-1.3l-1.7-11.2l-3.7,0l-3.1-16.8l0.9-2.8c1.4,2.1,2.3,3.4,2.3,3.4l6.8-4.2l-4.2-14.6l8.1,16.8
	l2.5,13.4c0,0-4-8.8-7.7-2.8c-3.7,6,3.5,16.7,5,18.9c1.5,2.2,23-1,23-1l-3.1-12.5l-5.2,0.6c-0.3-2.6-0.7-4.6-0.7-4.6l-4.1-15.5
	l7.7-3.3l-7.6-18.6l4.7-33.7l-2.2-4l4.8-2.1l-4.8-2.5l-0.5,0.1c0.9-0.3,1.8-0.7,2.8-1.3c16.1-8.7,3.4-6.4,3.4-6.4s7.8-4.6,4.8-7.8
	c-3-3.2-8.1-1.4-8.1-1.4l17.6-13.8l-22.1-6l-4.1,14.6l-6.4-2.8l1.8,4.6c0,0-2.6,2.4-3.3,3.6c-0.7,1.2-2.5,0.3-2.5,0.3l-1.5,0.9
	l-37.9-11.3c0,0-8.2-0.7-9.3-10.4c0,0-1.4-7.6-4.3,3C184.3,21.4,182.3,24.4,182.3,24.4z M220.3,36.9l6.3,3.1c0,0,12.1-0.2,8-7.5
	s4.9,0,4.9,0s2.1,12.4,10.9,13.3l-10.8,1.6l-8.5-2.8l-9-0.1L220.3,36.9z"/>
<path class="st0" d="M219.6,32.4l7.8,2.2c0,0,8.2,0.3,0.1-7.2l-22.7-5.5c0,0-9.9,0.4-1.9,6.2l8.1,2.1
	C211.1,30.2,217.8,22,219.6,32.4z"/>
<polyline class="st1" points="173.4,13.3 23.3,13.3 23.3,158.7 289.5,158.7 289.5,22.5 275.9,22.5 "/>
</svg>
