<?xml version="1.0" encoding="utf-8"?>
<!-- Generator: Adobe Illustrator 22.0.1, SVG Export Plug-In . SVG Version: 6.00 Build 0)  -->
<svg version="1.1" id="Capa_1" xmlns="http://www.w3.org/2000/svg" xmlns:xlink="http://www.w3.org/1999/xlink" x="0px" y="0px"
	 viewBox="0 0 15.3 8.6" style="enable-background:new 0 0 15.3 8.6;" xml:space="preserve">
<style type="text/css">
	.st0{fill:#FFED00;}
	.st1{fill:none;stroke:#000000;stroke-width:0.25;stroke-linecap:round;stroke-linejoin:bevel;stroke-miterlimit:10;}
</style>
<g>
	<path d="M2.1,6.8V2h1.6l0.5,2.9l0,0L5,2h1.6v4.8H5.5L5.7,3l0,0L4.8,6.8h-1L3.2,3.1l0,0l0.1,3.8H2.1V6.8z"/>
	<path d="M8,5.7L8,5.7l0.4-2.3h1L8.7,6.9H7.4L6.6,3.3h1.1L8,5.7z"/>
	<path d="M8.1,1.7c0,0,0,0.1,0.3-0.1c0.3-0.1,0.4,0,0.4,0S8.5,2,8.9,2.2c0.3,0.1,0.4,0.1,0.4,0.1L9.2,2.6h0.3v0.5h0.8
		c0,0,0,0.1,0.1,0.3l-0.1-0.1L10,4.5c-0.1,0-0.1,0.3-0.1,0.4L9.6,5.7l0.3,1.1L9.8,6.7c0,0,0-0.4-0.4-0.5C8.9,6,9.5,6.8,9.5,6.8
		l0.3,0.1l1-0.1l-0.1-0.5h-0.1l-0.3-0.5V5.6c0.1,0.1,0.3,0.1,0.3,0.1l0.3-0.1l-0.1-0.7l0.3,0.8L11,6.3c0,0-0.1-0.4-0.3-0.1
		c-0.1,0.3,0.1,0.7,0.3,0.8c0.1,0.1,1,0,1,0l-0.3-0.5h-0.3c0-0.1,0-0.3,0-0.3l-0.1-0.7l0.4-0.1l-0.4-0.8L11.5,3l-0.1-0.1h0.3
		l-0.3-0.1l0,0h0.1c0.7-0.4,0.1-0.3,0.1-0.3l0.3-0.3C11.8,2,11.5,2,11.5,2l0.8-0.5l-1-0.3l-0.1,0.7l-0.4-0.3L11,1.7l-0.1,0.1h-0.1
		h-0.1L8.8,1.5c0,0-0.4,0-0.4-0.4c0,0-0.1-0.3-0.1,0.1C8.1,1.6,8.1,1.7,8.1,1.7z M9.8,2.3L10,2.4c0,0,0.5,0,0.4-0.3
		c-0.1-0.3,0.3,0,0.3,0s0.1,0.5,0.5,0.5l-0.5,0.1l-0.4-0.3H9.9L9.8,2.3z"/>
	<path class="st0" d="M9.8,2.2L10,2.3c0,0,0.4,0,0-0.3l-1-0.3c0,0-0.4,0-0.1,0.3l0.4,0.1C9.3,2,9.6,1.7,9.8,2.2z"/>
	<polyline class="st1" points="7.7,1.3 1,1.3 1,7.6 12.9,7.6 12.9,1.7 12.2,1.7 	"/>
</g>
</svg>
