<svg id="Capa_1" data-name="Capa 1" xmlns="http://www.w3.org/2000/svg" viewBox="0 0 27.33 19.85"><defs><style>.cls-1{fill:none;stroke:#000;stroke-miterlimit:10;stroke-width:2.13px;}</style></defs><title>youtube</title><path class="cls-1" d="M34.84,16.16a3.16,3.16,0,0,0-2.22-2.24c-2-.53-9.85-.53-9.85-.53s-7.88,0-9.85.53a3.16,3.16,0,0,0-2.22,2.24,33.06,33.06,0,0,0-.53,6.11,33,33,0,0,0,.53,6.1,3.12,3.12,0,0,0,2.22,2.21c2,.53,9.85.53,9.85.53s7.88,0,9.85-.53a3.12,3.12,0,0,0,2.22-2.21,33,33,0,0,0,.53-6.1A33.06,33.06,0,0,0,34.84,16.16ZM20.18,26V18.52l6.59,3.75L20.18,26Z" transform="translate(-9.1 -12.32)"/></svg>