<svg height="512" viewBox="0 0 512 512" width="512" xmlns="http://www.w3.org/2000/svg"><g id="filled_outline" data-name="filled outline"><g fill="#daa57e"><path d="m216 24h32v40h-32z"/><path d="m188 64h-32l-20-40h32z"/><path d="m328 24h-32l-20.742 41.485h32z"/></g><path d="m216 376h32v112h-32z" fill="#be906e"/><path d="m128 488h-32l52.083-112.846 32.603-1.307z" fill="#be906e"/><path d="m336 488h32l-52.686-114.153-31.006 2.153z" fill="#be906e"/><path d="m216 384h32v24h-32z" fill="#ac8264"/><path d="m144 384-11.077 24h32l11.077-24z" fill="#ac8264"/><path d="m331.077 408-11.077-24h-32l11.077 24z" fill="#ac8264"/><path d="m56 80h352v280h-352z" fill="#ededed"/><path d="m386.116 89.637a16 16 0 0 1 16 16v120a0 0 0 0 1 0 0h-32a0 0 0 0 1 0 0v-120a16 16 0 0 1 16-16z" fill="#c3744c" transform="matrix(-.465 -.885 .885 -.465 425.937 572.786)"/><path d="m231.992 248a8 8 0 0 1 -4.43-1.344l-4.031-2.687a71.087 71.087 0 0 0 -39.531-11.969 8 8 0 0 1 0-16 87.019 87.019 0 0 1 48.406 14.656l4.032 2.688a8 8 0 0 1 -4.446 14.656z" fill="#8bc89c"/><path d="m232.008 240a8 8 0 0 1 -4.446-14.656l4.032-2.688a87.019 87.019 0 0 1 48.406-14.656 8 8 0 0 1 0 16 71.087 71.087 0 0 0 -39.531 11.969l-4.031 2.687a8 8 0 0 1 -4.43 1.344z" fill="#8bc89c"/><rect fill="#ce9c77" height="32" rx="16" width="408" x="32" y="352"/><rect fill="#ce9c77" height="32" rx="16" width="408" x="32" y="56"/><path d="m276.315 215.253 30.308 4.9a17.746 17.746 0 0 0 15.624-5.219 22.2 22.2 0 0 0 3.656-25.7 22.2 22.2 0 0 0 -23.227-11.595 17.745 17.745 0 0 0 -13.171 9.891z" fill="#b9b9b9"/><path d="m302.676 177.637a17.748 17.748 0 0 0 -13.172 9.891l-9.06 19.045 26.179 4.232a17.747 17.747 0 0 0 15.624-5.219 22.075 22.075 0 0 0 5.638-10.735 21.955 21.955 0 0 0 -25.209-17.214z" fill="#cdcdcd"/><path d="m224 192h16v72h-16z" fill="#83bd93"/><path d="m248 320h-32a16 16 0 0 1 -16-16v-48h64v48a16 16 0 0 1 -16 16z" fill="#a55e00"/><path d="m200 280h40v16h-40z" fill="#995701"/><path d="m344 328h-224a8 8 0 0 1 0-16h224a8 8 0 0 1 0 16z" fill="#6a9876"/><path d="m288 280h16v16h-16z" fill="#dbdbdb"/><path d="m320 280h16v16h-16z" fill="#dbdbdb"/><path d="m128 280h48v16h-48z" fill="#dbdbdb"/><path d="m360 153.271-27.364 14.359a16 16 0 0 0 14.869 28.336l12.5-6.557z" fill="#905638"/><path d="m56 336h352v16h-352z" fill="#dbdbdb"/><path d="m56 88h352v8h-352z" fill="#dbdbdb"/><path d="m232 200a32 32 0 0 1 -32-32 51.776 51.776 0 0 1 28.622-46.311l3.378-1.689 3.378 1.689a51.776 51.776 0 0 1 28.622 46.311 32 32 0 0 1 -32 32z" fill="#c95993"/><path d="m217.976 142.469-6.03-7.537a51.755 51.755 0 0 0 -11.946 33.068 32 32 0 0 0 32 32v-17.55a64 64 0 0 0 -14.024-39.981z" fill="#db6ea2"/><path d="m264 168a51.588 51.588 0 0 0 -3.819-19.272l-8.065 3.226a32 32 0 0 0 -20.116 29.711v18.335a32 32 0 0 0 32-32z" fill="#d0699a"/><path d="m457.484 147.3a8 8 0 0 0 3.368-10.805l-14.868-28.336a8.02 8.02 0 0 0 -4.7-3.922 8.108 8.108 0 0 0 -6.1.555l-19.184 10.061v-18.853h8a24 24 0 0 0 0-48h-99.055l10.211-20.422a8 8 0 0 0 -7.156-11.578h-32a8 8 0 0 0 -7.156 4.422l-13.789 27.578h-19.055v-24a8 8 0 0 0 -8-8h-32a8 8 0 0 0 -8 8v24h-19.055l-13.789-27.578a8 8 0 0 0 -7.156-4.422h-32a8 8 0 0 0 -7.156 11.578l10.211 20.422h-91.055a24 24 0 0 0 0 48v248a24 24 0 0 0 0 48h83.5l-42.766 92.648a8 8 0 0 0 7.266 11.352h32a8.009 8.009 0 0 0 7.266-4.648l45.854-99.352h26.88v96a8 8 0 0 0 8 8h32a8 8 0 0 0 8-8v-96h26.88l45.854 99.352a8.009 8.009 0 0 0 7.266 4.648h32a8 8 0 0 0 7.266-11.352l-42.761-92.648h91.495a24 24 0 0 0 0-48h-8v-174.935zm-156.539-115.3h14.11l-8 16h-14.11zm-76.945 0h16v16h-16zm-60.945 0 8 16h-14.11l-8-16zm-123.055 40a8.005 8.005 0 0 1 8-8h376a8 8 0 0 1 0 16h-376a8.005 8.005 0 0 1 -8-8zm288.914 88.547a23.747 23.747 0 0 0 -10.607 11.385 30.068 30.068 0 0 0 -16.9-2.19 25.746 25.746 0 0 0 -19.125 14.352l-11.646 24.465a86.748 86.748 0 0 0 -30.636 9.211v-10.579a40.067 40.067 0 0 0 32-39.191 59.461 59.461 0 0 0 -33.047-53.469l-3.375-1.687a8.008 8.008 0 0 0 -7.156 0l-3.375 1.687a59.461 59.461 0 0 0 -33.047 53.469 40.067 40.067 0 0 0 32 39.191v18.579a86.931 86.931 0 0 0 -40-9.77 8 8 0 0 0 0 16 71.087 71.087 0 0 1 39.531 11.969l.469.312v3.719h-24a8 8 0 0 0 -8 8v48a23.707 23.707 0 0 0 1.475 8h-73.475a8 8 0 0 0 0 16h224a8 8 0 0 0 0-16h-73.474a23.731 23.731 0 0 0 1.474-8v-48a8 8 0 0 0 -8-8h-24v-11.719l.469-.312a71.087 71.087 0 0 1 39.531-11.969c.049 0 .089-.027.137-.028l25.215 4.075a25.77 25.77 0 0 0 22.664-7.57 30.073 30.073 0 0 0 7.824-15.256 21.167 21.167 0 0 0 15.387-2.166l48.773-25.594v166.539h-336v-248h336v27.248zm23.086 5.961v18.062l-8.2 4.313a8.011 8.011 0 0 1 -10.805-3.367 8 8 0 0 1 3.36-10.8zm-35.516 42.875a9.752 9.752 0 0 1 -8.586 2.867l-19.773-3.195 8.609-18.086a9.713 9.713 0 0 1 7.235-5.43 14.193 14.193 0 0 1 12.515 23.844zm-108.484 70.617v-16h48v40a8.005 8.005 0 0 1 -8 8h-32a8.005 8.005 0 0 1 -8-8v-8h32v-16zm16-89.475a23.959 23.959 0 0 1 -16-22.525 43.71 43.71 0 0 1 4.554-19.332 56.075 56.075 0 0 1 11.446 33.012zm.219-53.08-1.642-2.03a44.087 44.087 0 0 1 9.423-6.47 43.679 43.679 0 0 1 17.142 15.533l-.056.022a40.163 40.163 0 0 0 -14.707 10.227 72.194 72.194 0 0 0 -10.16-17.282zm30.781 21.922.048-.019a44.048 44.048 0 0 1 .952 8.652 23.96 23.96 0 0 1 -16 22.526v-8.846a23.965 23.965 0 0 1 15-22.313zm-132.117 320.633h-14.383l40.617-88h14.383zm117.117 0h-16v-88h16zm115.5 0h-14.383l-40.617-88h14.383zm68.5-120a8 8 0 0 1 0 16h-376a8 8 0 0 1 0-16zm-56-183.818v-18.069l67.531-35.433 7.43 14.164z"/><path d="m288 280h16v16h-16z"/><path d="m320 280h16v16h-16z"/><path d="m128 280h48v16h-48z"/></g></svg>