<svg id="Capa_1" enable-background="new 0 0 512 512" height="512" viewBox="0 0 512 512" width="512" xmlns="http://www.w3.org/2000/svg"><g><g><path d="m456.619 457.148h-342.618c-11.046 0-20-8.954-20-20v-403.018c0-11.046 8.954-20 20-20h342.618c11.046 0 20 8.954 20 20v403.019c0 11.045-8.954 19.999-20 19.999z" fill="#dae7ef"/></g><g><path d="m456.647 14.13h-18.455v384.621c0 11.03-8.941 19.971-19.971 19.971h-324.22v18.455c0 11.03 8.941 19.971 19.971 19.971h342.675c11.03 0 19.971-8.941 19.971-19.971v-403.076c.001-11.03-8.941-19.971-19.971-19.971z" fill="#c1d5e4"/></g><g><path d="m417.175 345.304h-263.73c-4.418 0-8-3.582-8-8v-263.73c0-4.418 3.582-8 8-8h263.73c4.418 0 8 3.582 8 8v263.73c0 4.418-3.582 8-8 8z" fill="#f6e266"/></g><g><path d="m415.381 345.304c-13.35-44.952-54.97-77.741-104.255-77.741h-51.632c-49.286 0-90.906 32.789-104.255 77.741z" fill="#f6f9f9"/></g><g><path d="m320.093 254.28v-38.001h-69.566v38.001c0 6.675-2.608 13.086-7.267 17.865l-.205.21c-2.607 2.674-4.067 6.262-4.067 9.997 0 14.917 12.093 27.01 27.01 27.01h38.623c14.917 0 27.01-12.093 27.01-27.01 0-3.735-1.459-7.322-4.067-9.997l-.205-.21c-4.659-4.78-7.266-11.191-7.266-17.865z" fill="#eaac9d"/></g><g><path d="m502.756 480.764-15.345 15.345c-2.343 2.343-6.142 2.343-8.485 0l-137.324-137.323c-2.343-2.343-2.343-6.142 0-8.485l15.345-15.345c2.343-2.343 6.142-2.343 8.485 0l137.323 137.323c2.344 2.343 2.344 6.142.001 8.485z" fill="#407093"/></g><g><path d="m502.762 472.285-137.335-137.336c-2.34-2.34-6.133-2.34-8.473 0l-6.092 6.092 131.243 131.243c2.34 2.34 2.34 6.133 0 8.473l-9.265 9.265 6.092 6.092c2.34 2.34 6.133 2.34 8.473 0l15.358-15.358c2.339-2.338 2.339-6.132-.001-8.471z" fill="#2b4d66"/></g><g><g><path d="m144.47 282.542c-9.215 0-16.685-7.47-16.685-16.685v-105.609h-103.611c-9.215 0-16.685-7.47-16.685-16.685s7.47-16.685 16.685-16.685h120.296c9.215 0 16.685 7.47 16.685 16.685v122.294c0 9.214-7.47 16.685-16.685 16.685z" fill="#407093"/></g></g><g><path d="m144.47 126.878h-13.268c9.215 0 16.685 7.47 16.685 16.685v122.294c0 6.856-4.139 12.74-10.051 15.307 2.034.883 4.275 1.378 6.634 1.378 9.215 0 16.685-7.47 16.685-16.685v-122.294c0-9.215-7.47-16.685-16.685-16.685z" fill="#2b4d66"/></g><g><g><path d="m186.025 240.986h-122.293c-9.215 0-16.685-7.47-16.685-16.685v-122.293c0-9.215 7.47-16.685 16.685-16.685s16.685 7.47 16.685 16.685v105.608h105.608c9.215 0 16.685 7.47 16.685 16.685s-7.47 16.685-16.685 16.685z" fill="#407093"/></g></g><g><g><path d="m188.205 207.775c.094.715.158 1.439.158 2.179 0 9.215-7.47 16.685-16.685 16.685h-122.293c-.741 0-1.464-.065-2.18-.158 1.07 8.182 8.052 14.506 16.527 14.506h122.294c9.215 0 16.685-7.47 16.685-16.685-.001-8.475-6.324-15.457-14.506-16.527z" fill="#2b4d66"/></g></g><g><path d="m302.248 115.643h-33.877c-17.933 0-32.471 14.538-32.471 32.471v23.137h98.818v-23.137c.001-17.933-14.537-32.471-32.47-32.471z" fill="#be694f"/></g><g><path d="m343.015 175.429h-8.296v-14.564c0-4.218-3.419-7.638-7.638-7.638h-83.542c-4.218 0-7.638 3.42-7.638 7.638v14.564h-8.296c-3.309 0-5.991 2.682-5.991 5.991v16.76c0 6.618 5.365 11.983 11.983 11.983h3.191c1.938 10.296 7.034 19.823 14.717 27.172l11.487 10.988c12.484 11.941 32.155 11.941 44.639 0l11.487-10.988c7.683-7.349 12.779-16.876 14.717-27.172h3.19c6.618 0 11.983-5.365 11.983-11.983v-16.76c-.002-3.308-2.684-5.991-5.993-5.991z" fill="#eaac9d"/></g><g><path d="m326.026 394.805-6.745-12.332c-1.136-2.078-4.12-2.078-5.257 0l-6.745 12.332c-.275.503-.688.916-1.191 1.191l-12.332 6.745c-2.078 1.136-2.078 4.12 0 5.257l12.332 6.745c.503.275.916.688 1.191 1.191l6.745 12.332c1.136 2.078 4.12 2.078 5.257 0l6.745-12.332c.275-.503.688-.916 1.191-1.191l12.332-6.745c2.078-1.136 2.078-4.12 0-5.257l-12.332-6.745c-.503-.275-.916-.689-1.191-1.191z"/><path d="m261.497 373.869c-6.035 0-10.928 4.892-10.928 10.927s4.893 10.928 10.928 10.928 10.928-4.892 10.928-10.928c-.001-6.035-4.893-10.927-10.928-10.927z"/><circle cx="211.085" cy="416.296" r="10.928"/><path d="m508.059 466.989-24.622-24.622c.632-1.622.63-3.466.672-5.189v-136.347c0-4.137-3.353-7.489-7.489-7.489s-7.489 3.353-7.489 7.489v127.229l-75.267-75.267h23.324c8.535 0 15.478-6.943 15.478-15.478v-263.753c0-8.535-6.943-15.478-15.478-15.478h-263.755c-8.535 0-15.478 6.943-15.478 15.478v16.753c0 4.137 3.353 7.489 7.489 7.489s7.489-3.353 7.489-7.489v-16.753c0-.275.224-.499.499-.499h263.754c.275 0 .499.224.499.499v256.295c-15.77-36.197-49.129-62.258-88.606-68.385-.973-2.245-1.498-4.679-1.498-7.192 0 0-.02-14.637-.052-14.917 5.648-6.34 9.811-13.768 12.232-21.903 9.444-1.335 16.733-9.473 16.733-19.28v-16.76c0-7.434-6.047-13.481-13.481-13.481h-.806v-19.872c0-22.009-17.905-39.914-39.914-39.914h-33.97c-22.009 0-39.914 17.905-39.914 39.914v19.872h-.806c-7.434 0-13.481 6.047-13.481 13.481v16.76c0 9.807 7.288 17.945 16.734 19.28 2.413 8.109 6.558 15.515 12.18 21.842v14.977c0 2.514-.525 4.948-1.497 7.192-39.479 6.127-72.837 32.185-88.607 68.386v-41.36c9.167-3.438 15.711-12.289 15.711-22.642v-17.38h17.381c13.33 0 24.173-10.845 24.173-24.174s-10.844-24.174-24.173-24.174h-17.381v-56.564c0-3.94-.954-7.659-2.633-10.949l25.31-25.31c2.925-2.925 2.925-7.667 0-10.592-2.926-2.924-7.667-2.924-10.592 0l-25.31 25.31c-3.29-1.679-7.009-2.633-10.949-2.633h-42.98v-85.288c0-6.883 5.599-12.482 12.482-12.482h342.676c6.883 0 12.482 5.599 12.482 12.482v230.127c0 4.137 3.353 7.489 7.489 7.489s7.489-3.353 7.489-7.489v-230.127c0-15.141-12.319-27.461-27.461-27.461h-342.674c-15.141 0-27.461 12.319-27.461 27.461v59.821c-3.334-9.365-12.284-16.089-22.779-16.089-13.33 0-24.174 10.845-24.174 24.174v17.381h-15.384c-13.329.001-24.174 10.846-24.174 24.175 0 13.33 10.845 24.174 24.174 24.174h15.383v56.564c0 13.33 10.845 24.174 24.174 24.174h22.779v188.701c0 15.141 12.319 27.461 27.461 27.461h322.89l36.773 36.774c2.547 2.546 5.932 3.948 9.533 3.948s6.987-1.403 9.532-3.948l15.358-15.358c5.257-5.256 5.257-13.808.002-19.064zm-259.646-189.402.21-.215c6.058-6.214 9.394-14.415 9.394-23.093v-.36c7.68 7.249 17.484 10.877 27.293 10.877 9.807 0 19.615-3.63 27.294-10.877v.361c0 8.678 3.336 16.879 9.399 23.098l.2.205c1.251 1.283 1.94 2.977 1.94 4.77 0 10.763-8.757 19.52-19.52 19.52h-38.623c-10.763 0-19.52-8.757-19.52-19.52-.002-1.793.687-3.487 1.933-4.766zm19.912-154.454h33.97c12.964 0 23.644 9.946 24.823 22.607-.012 0-.024-.002-.037-.002h-83.542c-.012 0-.024.002-.037.002 1.178-12.661 11.859-22.607 24.823-22.607zm-31.538 79.541h-3.191c-2.478 0-4.494-2.016-4.494-4.494v-15.262h6.798c4.137 0 7.489-3.353 7.489-7.489v-14.564c0-.082.067-.148.149-.148h83.542c.082 0 .149.066.149.148v14.564c0 4.137 3.353 7.489 7.489 7.489h6.798v15.262c0 2.478-2.016 4.494-4.494 4.494h-3.19c-3.602 0-6.694 2.564-7.36 6.104-1.676 8.901-6.011 16.905-12.534 23.146l-11.488 10.987c-9.613 9.196-24.672 9.196-34.285 0l-11.486-10.987c-6.524-6.24-10.858-14.244-12.533-23.145-.666-3.54-3.757-6.105-7.359-6.105zm-83.121 63.182c0 5.071-4.125 9.196-9.196 9.196s-9.196-4.125-9.196-9.196v-17.38h18.392zm0-65.729h-18.392v-36.775l18.392-18.392zm-65.76-32.389h21.797l-21.797 21.797zm32.39 10.592v21.797h-21.797zm4.386-25.571h-36.776v-18.392h55.167zm-100.508 0c-5.071 0-9.196-4.125-9.196-9.196s4.125-9.196 9.196-9.196h15.383v18.392zm30.362 71.542v-122.293c0-5.071 4.125-9.196 9.196-9.196s9.196 4.125 9.196 9.196v105.603c-.077 4.021 3.469 7.568 7.489 7.494h105.609c5.07 0 9.195 4.125 9.195 9.196s-4.125 9.196-9.195 9.196h-122.294c-5.071 0-9.196-4.125-9.196-9.196zm59.436 225.358c-6.883 0-12.482-5.599-12.482-12.482v-188.701h18.806v17.38c0 11.072 7.485 20.423 17.659 23.275v48.184c0 8.535 6.943 15.478 15.478 15.478h150.389c4.137 0 7.489-3.353 7.489-7.489s-3.353-7.489-7.489-7.489h-137.997c11.808-28.762 36.236-50.495 65.972-58.928-.181 1.138-.297 2.292-.297 3.465 0 19.023 15.476 34.498 34.498 34.498h38.623c19.023 0 34.498-15.476 34.498-34.498 0-1.172-.115-2.326-.296-3.464 29.734 8.433 54.164 30.167 65.971 58.926h-25.638c-.088 0-.173.01-.26.013l-8.174-8.174c-2.547-2.546-5.932-3.948-9.533-3.948s-6.987 1.403-9.531 3.948l-15.36 15.359c-5.254 5.256-5.253 13.808.001 19.064l85.583 85.583zm369.196 40.101-135.217-135.217 13.239-13.239 135.218 135.217z"/></g></g></svg>