<?xml version="1.0" encoding="UTF-8" standalone="no"?>
<svg
   xmlns:dc="http://purl.org/dc/elements/1.1/"
   xmlns:cc="http://creativecommons.org/ns#"
   xmlns:rdf="http://www.w3.org/1999/02/22-rdf-syntax-ns#"
   xmlns:svg="http://www.w3.org/2000/svg"
   xmlns="http://www.w3.org/2000/svg"
   xmlns:sodipodi="http://sodipodi.sourceforge.net/DTD/sodipodi-0.dtd"
   xmlns:inkscape="http://www.inkscape.org/namespaces/inkscape"
   sodipodi:docname="marca1.svg"
   inkscape:version="1.0 (1.0+r73)"
   id="svg986"
   version="1.1"
   viewBox="0 0 210 297"
   height="297mm"
   width="210mm">
  <defs
     id="defs980">
    <style
       id="style1549">.cls-1{fill:#fff;}</style>
  </defs>
  <sodipodi:namedview
     inkscape:window-maximized="1"
     inkscape:window-y="27"
     inkscape:window-x="0"
     inkscape:window-height="713"
     inkscape:window-width="1366"
     showgrid="false"
     inkscape:document-rotation="0"
     inkscape:current-layer="layer1"
     inkscape:document-units="mm"
     inkscape:cy="544.02232"
     inkscape:cx="403.35158"
     inkscape:zoom="0.98994949"
     inkscape:pageshadow="2"
     inkscape:pageopacity="0.0"
     borderopacity="1.0"
     bordercolor="#666666"
     pagecolor="#ffffff"
     id="base" />
  <metadata
     id="metadata983">
    <rdf:RDF>
      <cc:Work
         rdf:about="">
        <dc:format>image/svg+xml</dc:format>
        <dc:type
           rdf:resource="http://purl.org/dc/dcmitype/StillImage" />
        <dc:title></dc:title>
      </cc:Work>
    </rdf:RDF>
  </metadata>
  <g
     id="layer1"
     inkscape:groupmode="layer"
     inkscape:label="Capa 1">
    <g
       style="fill:#000000"
       transform="matrix(1.6463654,0,0,1.6463654,41.651305,100.94867)"
       id="g1612">
      <path
         style="fill:#000000"
         class="cls-1"
         d="m 58.65,21.15 v 2.73 h 3 v 0.79 h -3 v 2.79 H 62 v 0.83 h -4.4 v -8 H 62 v 0.84 z"
         transform="translate(-19.59,-20.21)"
         id="path1555" />
      <path
         style="fill:#000000"
         class="cls-1"
         d="m 68,26.45 h -3.49 l -0.66,1.84 h -1.11 l 2.95,-7.83 h 1.17 l 2.94,7.83 h -1.11 z m -0.29,-0.8 -1.46,-4 -1.46,4 z"
         transform="translate(-19.59,-20.21)"
         id="path1557" />
      <path
         style="fill:#000000"
         class="cls-1"
         d="m 75.62,27.27 a 2.07,2.07 0 0 1 -0.83,0.8 2.83,2.83 0 0 1 -1.37,0.3 A 3.17,3.17 0 0 1 72,28.08 2.4,2.4 0 0 1 71,27.29 2.21,2.21 0 0 1 70.57,26.14 h 1.1 a 1.49,1.49 0 0 0 0.23,0.66 1.56,1.56 0 0 0 0.57,0.54 1.75,1.75 0 0 0 0.89,0.21 1.38,1.38 0 0 0 1,-0.37 1.25,1.25 0 0 0 0.36,-0.92 1.22,1.22 0 0 0 -0.25,-0.8 1.89,1.89 0 0 0 -0.63,-0.48 c -0.25,-0.11 -0.59,-0.24 -1,-0.38 a 9,9 0 0 1 -1.22,-0.47 2,2 0 0 1 -0.78,-0.66 1.94,1.94 0 0 1 -0.32,-1.16 2,2 0 0 1 0.3,-1.1 2,2 0 0 1 0.86,-0.74 3.14,3.14 0 0 1 1.32,-0.26 2.86,2.86 0 0 1 1.87,0.57 2.21,2.21 0 0 1 0.8,1.46 H 74.61 A 1.46,1.46 0 0 0 74.12,21.4 1.52,1.52 0 0 0 73.05,21 a 1.5,1.5 0 0 0 -1,0.32 1.14,1.14 0 0 0 -0.37,0.91 1.13,1.13 0 0 0 0.24,0.75 1.64,1.64 0 0 0 0.61,0.46 10.5,10.5 0 0 0 1,0.37 8.9,8.9 0 0 1 1.24,0.47 2.17,2.17 0 0 1 0.86,2.95 z"
         transform="translate(-19.59,-20.21)"
         id="path1559" />
      <path
         style="fill:#000000"
         class="cls-1"
         d="m 83.51,26.41 a 3.37,3.37 0 0 1 -1.43,1.39 4.85,4.85 0 0 1 -2.27,0.49 h -2.54 v -8 h 2.54 a 5,5 0 0 1 2.27,0.48 3.37,3.37 0 0 1 1.43,1.39 4.9,4.9 0 0 1 0,4.23 z m -1.39,0.15 A 3,3 0 0 0 82.94,24.3 3,3 0 0 0 82.12,22 3.26,3.26 0 0 0 79.73,21.19 H 78.3 v 6.15 h 1.43 a 3.29,3.29 0 0 0 2.39,-0.78 z"
         transform="translate(-19.59,-20.21)"
         id="path1561" />
      <path
         style="fill:#000000"
         class="cls-1"
         d="m 63.69,31.88 a 3.12,3.12 0 0 1 1.21,2 h -2.05 a 1.62,1.62 0 0 0 -0.62,-0.68 1.92,1.92 0 0 0 -1,-0.26 1.89,1.89 0 0 0 -1.47,0.62 2.83,2.83 0 0 0 0,3.42 2.15,2.15 0 0 0 1.65,0.61 2,2 0 0 0 1.22,-0.37 2.08,2.08 0 0 0 0.73,-1.09 h -2.42 v -1.4 H 65 v 1.92 a 4,4 0 0 1 -0.72,1.3 3.81,3.81 0 0 1 -1.28,1 4,4 0 0 1 -1.77,0.37 4.26,4.26 0 0 1 -2.12,-0.51 3.51,3.51 0 0 1 -1.39,-1.44 4.74,4.74 0 0 1 0,-4.24 3.45,3.45 0 0 1 1.39,-1.44 4.19,4.19 0 0 1 2.1,-0.52 4,4 0 0 1 2.48,0.71 z"
         transform="translate(-19.59,-20.21)"
         id="path1563" />
      <path
         style="fill:#000000"
         class="cls-1"
         d="m 69,33.18 a 2.34,2.34 0 0 1 1.24,-0.34 v 2.07 H 69.68 A 1.89,1.89 0 0 0 68.49,35.24 1.3,1.3 0 0 0 68,36.35 v 2.88 H 66.09 V 32.91 H 68 v 1.19 a 2.76,2.76 0 0 1 1,-0.92 z"
         transform="translate(-19.59,-20.21)"
         id="path1565" />
      <path
         style="fill:#000000"
         class="cls-1"
         d="m 74.66,33.16 a 2.08,2.08 0 0 1 0.77,0.89 v -1.14 h 1.92 v 6.32 h -1.92 v -1.15 a 2,2 0 0 1 -0.77,0.9 2.31,2.31 0 0 1 -1.25,0.33 2.49,2.49 0 0 1 -1.4,-0.4 2.67,2.67 0 0 1 -1,-1.12 4.31,4.31 0 0 1 0,-3.45 2.67,2.67 0 0 1 1,-1.12 2.57,2.57 0 0 1 1.4,-0.39 2.31,2.31 0 0 1 1.25,0.33 z M 73,34.94 a 1.59,1.59 0 0 0 -0.38,1.13 1.61,1.61 0 0 0 0.38,1.13 1.42,1.42 0 0 0 2,0 1.82,1.82 0 0 0 0,-2.25 1.35,1.35 0 0 0 -1,-0.41 1.28,1.28 0 0 0 -1,0.4 z"
         transform="translate(-19.59,-20.21)"
         id="path1567" />
      <path
         style="fill:#000000"
         class="cls-1"
         d="m 84.42,33.57 a 2.87,2.87 0 0 1 0.64,2 v 3.67 h -1.94 v -3.46 a 1.41,1.41 0 0 0 -0.33,-1 1.18,1.18 0 0 0 -0.89,-0.35 1.2,1.2 0 0 0 -0.93,0.37 1.51,1.51 0 0 0 -0.35,1.07 v 3.35 h -1.93 v -6.31 h 1.93 v 1.15 a 2.11,2.11 0 0 1 0.81,-0.89 2.37,2.37 0 0 1 1.26,-0.33 2.17,2.17 0 0 1 1.73,0.73 z"
         transform="translate(-19.59,-20.21)"
         id="path1569" />
      <path
         style="fill:#000000"
         class="cls-1"
         d="m 63.65,42.88 a 3.64,3.64 0 0 1 1.29,2.17 h -2 a 1.87,1.87 0 0 0 -0.69,-0.87 2,2 0 0 0 -1.12,-0.32 1.7,1.7 0 0 0 -1.37,0.63 2.91,2.91 0 0 0 0,3.32 1.72,1.72 0 0 0 1.37,0.62 2,2 0 0 0 1.12,-0.32 1.89,1.89 0 0 0 0.69,-0.86 h 2 a 3.67,3.67 0 0 1 -1.29,2.17 3.9,3.9 0 0 1 -2.53,0.81 4,4 0 0 1 -2,-0.52 3.52,3.52 0 0 1 -1.37,-1.44 4.92,4.92 0 0 1 0,-4.24 3.59,3.59 0 0 1 1.37,-1.44 4,4 0 0 1 2,-0.51 3.89,3.89 0 0 1 2.53,0.8 z"
         transform="translate(-19.59,-20.21)"
         id="path1571" />
      <path
         style="fill:#000000"
         class="cls-1"
         d="m 69.68,44.09 a 2.08,2.08 0 0 1 0.77,0.89 v -1.14 h 1.92 v 6.32 H 70.45 V 49 a 2,2 0 0 1 -0.77,0.9 2.31,2.31 0 0 1 -1.25,0.33 2.57,2.57 0 0 1 -1.4,-0.39 2.7,2.7 0 0 1 -1,-1.13 3.86,3.86 0 0 1 -0.33,-1.71 3.9,3.9 0 0 1 0.36,-1.73 2.73,2.73 0 0 1 1,-1.12 2.57,2.57 0 0 1 1.4,-0.39 2.31,2.31 0 0 1 1.22,0.33 z m -1.63,1.78 a 1.87,1.87 0 0 0 0,2.26 1.41,1.41 0 0 0 2,0 1.78,1.78 0 0 0 0,-2.25 1.33,1.33 0 0 0 -1,-0.41 1.31,1.31 0 0 0 -1,0.4 z"
         transform="translate(-19.59,-20.21)"
         id="path1573" />
      <path
         style="fill:#000000"
         class="cls-1"
         d="m 79.44,44.5 a 2.87,2.87 0 0 1 0.64,2 v 3.67 h -1.94 v -3.45 a 1.38,1.38 0 0 0 -0.33,-1 1.15,1.15 0 0 0 -0.89,-0.36 1.2,1.2 0 0 0 -0.93,0.37 1.53,1.53 0 0 0 -0.35,1.07 v 3.35 h -1.93 v -6.31 h 1.93 V 45 a 2.07,2.07 0 0 1 0.81,-0.9 2.37,2.37 0 0 1 1.26,-0.33 2.17,2.17 0 0 1 1.73,0.73 z"
         transform="translate(-19.59,-20.21)"
         id="path1575" />
      <path
         style="fill:#000000"
         class="cls-1"
         d="m 85,44.09 a 2,2 0 0 1 0.77,0.89 v -1.14 h 1.93 v 6.32 H 85.77 V 49 a 1.93,1.93 0 0 1 -0.77,0.9 2.25,2.25 0 0 1 -1.24,0.33 2.57,2.57 0 0 1 -1.4,-0.39 2.63,2.63 0 0 1 -1,-1.13 A 3.86,3.86 0 0 1 81,47 a 3.9,3.9 0 0 1 0.36,-1.73 2.66,2.66 0 0 1 1,-1.12 2.57,2.57 0 0 1 1.4,-0.39 2.25,2.25 0 0 1 1.24,0.33 z m -1.62,1.78 a 1.87,1.87 0 0 0 0,2.26 1.41,1.41 0 0 0 2,0 1.82,1.82 0 0 0 0,-2.25 1.33,1.33 0 0 0 -1,-0.41 1.31,1.31 0 0 0 -1,0.4 z"
         transform="translate(-19.59,-20.21)"
         id="path1577" />
      <path
         style="fill:#000000"
         class="cls-1"
         d="m 91.9,44.11 a 2.46,2.46 0 0 1 1.24,-0.34 v 2.08 h -0.55 a 1.92,1.92 0 0 0 -1.2,0.32 1.33,1.33 0 0 0 -0.39,1.11 v 2.88 h -2 v -6.32 h 2 V 45 a 2.82,2.82 0 0 1 0.9,-0.89 z"
         transform="translate(-19.59,-20.21)"
         id="path1579" />
      <path
         style="fill:#000000"
         class="cls-1"
         d="m 94.09,41.33 a 1.22,1.22 0 0 1 0.84,-0.28 1.2,1.2 0 0 1 0.84,0.28 1,1 0 0 1 0.32,0.73 0.93,0.93 0 0 1 -0.32,0.72 1.16,1.16 0 0 1 -0.84,0.29 1.18,1.18 0 0 1 -0.84,-0.29 0.92,0.92 0 0 1 -0.31,-0.72 1,1 0 0 1 0.31,-0.73 z m 1.8,2.51 v 6.32 H 94 v -6.32 z"
         transform="translate(-19.59,-20.21)"
         id="path1581" />
      <path
         style="fill:#000000"
         class="cls-1"
         d="m 100.87,44.09 a 2,2 0 0 1 0.77,0.89 v -1.14 h 1.93 v 6.32 h -1.93 V 49 a 1.93,1.93 0 0 1 -0.77,0.9 2.25,2.25 0 0 1 -1.24,0.33 2.57,2.57 0 0 1 -1.4,-0.39 2.7,2.7 0 0 1 -1,-1.13 3.86,3.86 0 0 1 -0.33,-1.71 3.9,3.9 0 0 1 0.36,-1.73 2.73,2.73 0 0 1 1,-1.12 2.57,2.57 0 0 1 1.4,-0.39 2.25,2.25 0 0 1 1.21,0.33 z m -1.62,1.78 a 1.87,1.87 0 0 0 0,2.26 1.41,1.41 0 0 0 2,0 1.82,1.82 0 0 0 0,-2.25 1.33,1.33 0 0 0 -1,-0.41 1.31,1.31 0 0 0 -1,0.4 z"
         transform="translate(-19.59,-20.21)"
         id="path1583" />
      <path
         style="fill:#000000"
         class="cls-1"
         d="m 107.34,48.22 v 1.94 h -2 v -1.94 z"
         transform="translate(-19.59,-20.21)"
         id="path1585" />
      <path
         style="fill:#000000"
         class="cls-1"
         d="m 39.23,54.42 2.62,-5.05 h 6.86 V 20.25 H 19.59 V 49.37 H 36.91 Z M 45,45.68 H 23.28 V 23.93 H 45 Z"
         transform="translate(-19.59,-20.21)"
         id="path1587" />
    </g>
  </g>
</svg>
