<?xml version="1.0" standalone="no"?>
<!DOCTYPE svg PUBLIC "-//W3C//DTD SVG 20010904//EN"
 "http://www.w3.org/TR/2001/REC-SVG-20010904/DTD/svg10.dtd">
<svg version="1.0" xmlns="http://www.w3.org/2000/svg"
 width="2426.000000pt" height="2426.000000pt" viewBox="0 0 2426.000000 2426.000000"
 preserveAspectRatio="xMidYMid meet">
<metadata>
Created by potrace 1.11, written by Peter Selinger 2001-2013
</metadata>
<g transform="translate(0.000000,2426.000000) scale(0.100000,-0.100000)"
fill="#000000" stroke="none">
<path d="M1802 24250 c-4 -3 -7 -4652 -7 -10333 0 -10320 0 -10327 20 -10328
11 0 2777 -1 6147 -1 l6126 0 33 -72 c49 -106 107 -233 139 -301 75 -162 160
-347 160 -350 0 -2 25 -55 55 -120 30 -64 55 -118 55 -120 0 -2 23 -52 51
-112 28 -59 82 -178 121 -263 39 -85 86 -189 105 -230 20 -41 72 -156 118
-255 45 -99 96 -209 113 -245 16 -36 53 -117 82 -180 29 -63 72 -157 96 -209
24 -51 44 -95 44 -96 0 -2 21 -47 46 -102 25 -54 69 -147 96 -208 28 -60 68
-148 89 -193 22 -46 39 -85 39 -87 0 -2 26 -59 58 -126 32 -68 78 -168 102
-221 24 -53 45 -96 46 -95 4 6 113 214 194 372 51 99 114 221 140 270 26 50
89 171 140 270 51 99 119 230 150 290 32 61 92 178 135 260 43 83 108 209 145
280 37 72 101 195 143 275 41 80 103 199 137 265 134 257 190 366 270 520 45
88 113 219 150 290 37 72 107 207 155 300 48 94 92 175 97 181 6 9 637 12
2386 12 1307 0 2402 1 2432 1 l55 1 0 10330 c0 5682 -2 10331 -5 10331 -17 4
-20653 3 -20658 -1z m18043 -10324 c0 -4239 -4 -7710 -8 -7713 -12 -7 -15407
-7 -15414 1 -4 4 -8 15173 -4 15386 l1 35 7712 0 7713 0 0 -7709z"/>
</g>
</svg>
