<?xml version="1.0" encoding="utf-8"?>
<!-- Generator: Adobe Illustrator 24.0.1, SVG Export Plug-In . SVG Version: 6.00 Build 0)  -->
<svg version="1.1" id="Capa_1" focusable="false" xmlns="http://www.w3.org/2000/svg" xmlns:xlink="http://www.w3.org/1999/xlink"
	 x="0px" y="0px" viewBox="0 0 512 512" style="enable-background:new 0 0 512 512;" xml:space="preserve">
<path d="M414,374.5l-63.3-63.3c-2.9-2.9-6.7-4.4-10.8-4.4h-10.3c17.5-22.4,27.9-50.6,27.9-81.2c0-72.9-59.1-132-132-132
	s-132,59.1-132,132s59.1,132,132,132c30.6,0,58.8-10.4,81.2-27.9v10.3c0,4.1,1.6,7.9,4.4,10.8l63.3,63.3c6,6,15.6,6,21.5,0l18-18
	C419.9,390.1,419.9,380.4,414,374.5z M225.6,306.7c-44.9,0-81.2-36.3-81.2-81.2c0-44.9,36.3-81.2,81.2-81.2
	c44.9,0,81.2,36.3,81.2,81.2C306.8,270.4,270.5,306.7,225.6,306.7z"/>
</svg>
