<svg id="Capa_1" data-name="Capa 1" xmlns="http://www.w3.org/2000/svg" viewBox="0 0 87.75 34.21"><defs><style>.cls-1{fill:#fff;}</style></defs><title>marca</title><path class="cls-1" d="M58.65,21.15v2.73h3v.79h-3v2.79H62v.83h-4.4v-8H62v.84Z" transform="translate(-19.59 -20.21)"/><path class="cls-1" d="M68,26.45H64.51l-.66,1.84H62.74l2.95-7.83h1.17l2.94,7.83H68.69Zm-.29-.8-1.46-4-1.46,4Z" transform="translate(-19.59 -20.21)"/><path class="cls-1" d="M75.62,27.27a2.07,2.07,0,0,1-.83.8,2.83,2.83,0,0,1-1.37.3A3.17,3.17,0,0,1,72,28.08a2.4,2.4,0,0,1-1-.79,2.21,2.21,0,0,1-.43-1.15h1.1a1.49,1.49,0,0,0,.23.66,1.56,1.56,0,0,0,.57.54,1.75,1.75,0,0,0,.89.21,1.38,1.38,0,0,0,1-.37,1.25,1.25,0,0,0,.36-.92,1.22,1.22,0,0,0-.25-.8,1.89,1.89,0,0,0-.63-.48c-.25-.11-.59-.24-1-.38a9,9,0,0,1-1.22-.47,2,2,0,0,1-.78-.66,1.94,1.94,0,0,1-.32-1.16,2,2,0,0,1,.3-1.1,2,2,0,0,1,.86-.74,3.14,3.14,0,0,1,1.32-.26,2.86,2.86,0,0,1,1.87.57,2.21,2.21,0,0,1,.8,1.46H74.61a1.46,1.46,0,0,0-.49-.84A1.52,1.52,0,0,0,73.05,21a1.5,1.5,0,0,0-1,.32,1.14,1.14,0,0,0-.37.91,1.13,1.13,0,0,0,.24.75,1.64,1.64,0,0,0,.61.46,10.5,10.5,0,0,0,1,.37,8.9,8.9,0,0,1,1.24.47,2.17,2.17,0,0,1,.86,2.95Z" transform="translate(-19.59 -20.21)"/><path class="cls-1" d="M83.51,26.41a3.37,3.37,0,0,1-1.43,1.39,4.85,4.85,0,0,1-2.27.49H77.27v-8h2.54a5,5,0,0,1,2.27.48,3.37,3.37,0,0,1,1.43,1.39,4.9,4.9,0,0,1,0,4.23Zm-1.39.15a3,3,0,0,0,.82-2.26A3,3,0,0,0,82.12,22a3.26,3.26,0,0,0-2.39-.81H78.3v6.15h1.43A3.29,3.29,0,0,0,82.12,26.56Z" transform="translate(-19.59 -20.21)"/><path class="cls-1" d="M63.69,31.88a3.12,3.12,0,0,1,1.21,2H62.85a1.62,1.62,0,0,0-.62-.68,1.92,1.92,0,0,0-1-.26,1.89,1.89,0,0,0-1.47.62,2.83,2.83,0,0,0,0,3.42,2.15,2.15,0,0,0,1.65.61,2,2,0,0,0,1.22-.37,2.08,2.08,0,0,0,.73-1.09H60.94V34.73H65v1.92a4,4,0,0,1-.72,1.3,3.81,3.81,0,0,1-1.28,1,4,4,0,0,1-1.77.37,4.26,4.26,0,0,1-2.12-.51,3.51,3.51,0,0,1-1.39-1.44,4.74,4.74,0,0,1,0-4.24,3.45,3.45,0,0,1,1.39-1.44,4.19,4.19,0,0,1,2.1-.52A4,4,0,0,1,63.69,31.88Z" transform="translate(-19.59 -20.21)"/><path class="cls-1" d="M69,33.18a2.34,2.34,0,0,1,1.24-.34v2.07h-.56a1.89,1.89,0,0,0-1.19.33A1.3,1.3,0,0,0,68,36.35v2.88H66.09V32.91H68V34.1A2.76,2.76,0,0,1,69,33.18Z" transform="translate(-19.59 -20.21)"/><path class="cls-1" d="M74.66,33.16a2.08,2.08,0,0,1,.77.89V32.91h1.92v6.32H75.43V38.08a2,2,0,0,1-.77.9,2.31,2.31,0,0,1-1.25.33,2.49,2.49,0,0,1-1.4-.4,2.67,2.67,0,0,1-1-1.12,4.31,4.31,0,0,1,0-3.45,2.67,2.67,0,0,1,1-1.12,2.57,2.57,0,0,1,1.4-.39A2.31,2.31,0,0,1,74.66,33.16ZM73,34.94a1.59,1.59,0,0,0-.38,1.13A1.61,1.61,0,0,0,73,37.2a1.42,1.42,0,0,0,2,0,1.82,1.82,0,0,0,0-2.25,1.35,1.35,0,0,0-1-.41A1.28,1.28,0,0,0,73,34.94Z" transform="translate(-19.59 -20.21)"/><path class="cls-1" d="M84.42,33.57a2.87,2.87,0,0,1,.64,2v3.67H83.12V35.78a1.41,1.41,0,0,0-.33-1,1.18,1.18,0,0,0-.89-.35,1.2,1.2,0,0,0-.93.37,1.51,1.51,0,0,0-.35,1.07v3.35H78.69V32.91h1.93v1.15a2.11,2.11,0,0,1,.81-.89,2.37,2.37,0,0,1,1.26-.33A2.17,2.17,0,0,1,84.42,33.57Z" transform="translate(-19.59 -20.21)"/><path class="cls-1" d="M63.65,42.88a3.64,3.64,0,0,1,1.29,2.17h-2a1.87,1.87,0,0,0-.69-.87,2,2,0,0,0-1.12-.32,1.7,1.7,0,0,0-1.37.63,2.91,2.91,0,0,0,0,3.32,1.72,1.72,0,0,0,1.37.62,2,2,0,0,0,1.12-.32,1.89,1.89,0,0,0,.69-.86h2a3.67,3.67,0,0,1-1.29,2.17,3.9,3.9,0,0,1-2.53.81,4,4,0,0,1-2-.52,3.52,3.52,0,0,1-1.37-1.44,4.92,4.92,0,0,1,0-4.24,3.59,3.59,0,0,1,1.37-1.44,4,4,0,0,1,2-.51A3.89,3.89,0,0,1,63.65,42.88Z" transform="translate(-19.59 -20.21)"/><path class="cls-1" d="M69.68,44.09a2.08,2.08,0,0,1,.77.89V43.84h1.92v6.32H70.45V49a2,2,0,0,1-.77.9,2.31,2.31,0,0,1-1.25.33,2.57,2.57,0,0,1-1.4-.39,2.7,2.7,0,0,1-1-1.13A3.86,3.86,0,0,1,65.7,47a3.9,3.9,0,0,1,.36-1.73,2.73,2.73,0,0,1,1-1.12,2.57,2.57,0,0,1,1.4-.39A2.31,2.31,0,0,1,69.68,44.09Zm-1.63,1.78a1.87,1.87,0,0,0,0,2.26,1.41,1.41,0,0,0,2,0,1.78,1.78,0,0,0,0-2.25,1.33,1.33,0,0,0-1-.41A1.31,1.31,0,0,0,68.05,45.87Z" transform="translate(-19.59 -20.21)"/><path class="cls-1" d="M79.44,44.5a2.87,2.87,0,0,1,.64,2v3.67H78.14V46.72a1.38,1.38,0,0,0-.33-1,1.15,1.15,0,0,0-.89-.36,1.2,1.2,0,0,0-.93.37,1.53,1.53,0,0,0-.35,1.07v3.35H73.71V43.84h1.93V45a2.07,2.07,0,0,1,.81-.9,2.37,2.37,0,0,1,1.26-.33A2.17,2.17,0,0,1,79.44,44.5Z" transform="translate(-19.59 -20.21)"/><path class="cls-1" d="M85,44.09a2,2,0,0,1,.77.89V43.84H87.7v6.32H85.77V49a1.93,1.93,0,0,1-.77.9,2.25,2.25,0,0,1-1.24.33,2.57,2.57,0,0,1-1.4-.39,2.63,2.63,0,0,1-1-1.13A3.86,3.86,0,0,1,81,47a3.9,3.9,0,0,1,.36-1.73,2.66,2.66,0,0,1,1-1.12,2.57,2.57,0,0,1,1.4-.39A2.25,2.25,0,0,1,85,44.09Zm-1.62,1.78a1.87,1.87,0,0,0,0,2.26,1.41,1.41,0,0,0,2,0,1.82,1.82,0,0,0,0-2.25,1.33,1.33,0,0,0-1-.41A1.31,1.31,0,0,0,83.38,45.87Z" transform="translate(-19.59 -20.21)"/><path class="cls-1" d="M91.9,44.11a2.46,2.46,0,0,1,1.24-.34v2.08h-.55a1.92,1.92,0,0,0-1.2.32A1.33,1.33,0,0,0,91,47.28v2.88H89V43.84H91V45A2.82,2.82,0,0,1,91.9,44.11Z" transform="translate(-19.59 -20.21)"/><path class="cls-1" d="M94.09,41.33a1.22,1.22,0,0,1,.84-.28,1.2,1.2,0,0,1,.84.28,1,1,0,0,1,.32.73.93.93,0,0,1-.32.72,1.16,1.16,0,0,1-.84.29,1.18,1.18,0,0,1-.84-.29.92.92,0,0,1-.31-.72A1,1,0,0,1,94.09,41.33Zm1.8,2.51v6.32H94V43.84Z" transform="translate(-19.59 -20.21)"/><path class="cls-1" d="M100.87,44.09a2,2,0,0,1,.77.89V43.84h1.93v6.32h-1.93V49a1.93,1.93,0,0,1-.77.9,2.25,2.25,0,0,1-1.24.33,2.57,2.57,0,0,1-1.4-.39,2.7,2.7,0,0,1-1-1.13A3.86,3.86,0,0,1,96.9,47a3.9,3.9,0,0,1,.36-1.73,2.73,2.73,0,0,1,1-1.12,2.57,2.57,0,0,1,1.4-.39A2.25,2.25,0,0,1,100.87,44.09Zm-1.62,1.78a1.87,1.87,0,0,0,0,2.26,1.41,1.41,0,0,0,2,0,1.82,1.82,0,0,0,0-2.25,1.33,1.33,0,0,0-1-.41A1.31,1.31,0,0,0,99.25,45.87Z" transform="translate(-19.59 -20.21)"/><path class="cls-1" d="M107.34,48.22v1.94h-2V48.22Z" transform="translate(-19.59 -20.21)"/><path class="cls-1" d="M39.23,54.42l2.62-5.05h6.86V20.25H19.59V49.37H36.91ZM45,45.68H23.28V23.93H45Z" transform="translate(-19.59 -20.21)"/></svg>