<?xml version="1.0" standalone="no"?>
<!DOCTYPE svg PUBLIC "-//W3C//DTD SVG 20010904//EN"
 "http://www.w3.org/TR/2001/REC-SVG-20010904/DTD/svg10.dtd">
<svg version="1.0" xmlns="http://www.w3.org/2000/svg"
 width="1280.000000pt" height="1242.000000pt" viewBox="0 0 1280.000000 1242.000000"
 preserveAspectRatio="xMidYMid meet">
<g transform="translate(0.000000,1242.000000) scale(0.100000,-0.100000)"
fill="#000000" stroke="none">
<path d="M3135 12404 c-474 -47 -862 -227 -1175 -543 -283 -287 -422 -607
-423 -971 0 -161 10 -224 69 -401 93 -280 253 -519 520 -779 275 -267 611
-492 1109 -744 230 -117 422 -195 725 -296 118 -39 219 -75 223 -79 10 -10
-131 -526 -210 -764 -149 -455 -298 -724 -532 -957 -148 -148 -271 -238 -436
-320 -243 -121 -474 -178 -760 -187 -261 -8 -465 20 -699 98 -242 81 -493 226
-636 368 -123 121 -155 209 -171 465 -12 181 -21 209 -95 283 -143 142 -395
143 -536 1 -67 -67 -77 -97 -84 -250 -15 -313 57 -602 200 -802 50 -70 217
-235 324 -319 347 -276 773 -453 1257 -523 147 -22 532 -25 675 -6 684 91
1209 370 1619 862 215 257 351 493 485 838 83 213 123 342 292 940 11 39 19
52 34 52 10 0 86 -13 167 -29 601 -120 1230 -82 1803 109 719 238 1424 707
2191 1457 145 142 179 169 179 143 0 -6 -40 -83 -89 -173 -49 -89 -181 -342
-293 -562 -190 -371 -308 -591 -377 -701 -31 -50 -134 -148 -2456 -2333 -3476
-3272 -4371 -4122 -4631 -4402 -615 -661 -1037 -1203 -1353 -1737 -40 -67 -42
-74 -28 -95 8 -12 26 -28 40 -36 23 -12 32 -12 79 8 29 12 93 48 143 80 50 32
151 96 225 142 499 309 1090 750 1664 1242 458 393 812 720 1731 1597 377 360
603 573 890 840 115 107 763 717 1440 1355 677 638 1610 1518 2074 1955 464
437 851 800 860 806 9 6 181 86 382 177 771 350 1129 529 1466 737 92 56 99
59 114 42 26 -26 201 -359 288 -548 225 -486 331 -883 331 -1238 0 -82 -5
-137 -14 -164 -23 -64 -83 -180 -134 -257 -62 -95 -285 -315 -402 -397 -216
-153 -532 -323 -1026 -554 -435 -203 -666 -328 -924 -499 -347 -231 -549 -421
-793 -747 -316 -421 -1498 -1813 -2874 -3387 -106 -120 -118 -151 -117 -286 1
-114 26 -184 92 -253 76 -80 118 -97 242 -97 94 0 111 3 167 29 59 27 78 47
491 520 1075 1231 1863 2161 2679 3161 149 183 237 265 418 394 243 172 461
292 1015 558 513 246 703 348 940 506 290 193 521 411 702 663 197 275 290
609 275 983 -11 257 -34 355 -198 834 -205 597 -301 844 -441 1124 l-80 163
117 122 c243 254 399 473 566 793 208 398 315 765 346 1190 l6 80 -46 76
c-118 193 -266 272 -512 272 -200 0 -400 -48 -755 -183 -118 -45 -253 -96
-300 -113 -113 -42 -431 -199 -561 -277 -243 -147 -428 -284 -634 -469 l-122
-109 -145 5 c-344 13 -628 -58 -862 -217 -122 -82 -239 -184 -490 -429 -245
-239 -430 -389 -702 -569 -779 -515 -1657 -738 -2404 -611 -167 28 -180 33
-180 74 0 47 24 166 85 431 79 336 95 423 111 584 53 546 -50 1024 -301 1400
-72 108 -246 302 -362 402 -243 213 -565 365 -890 422 -291 51 -359 54 -598
30z m446 -724 c241 -49 456 -162 639 -336 192 -184 313 -390 367 -629 26 -113
22 -309 -10 -500 -41 -241 -84 -453 -127 -625 -47 -188 -72 -261 -92 -273 -28
-18 -429 129 -720 263 -283 131 -596 321 -808 490 -215 172 -462 444 -524 574
-14 30 -33 83 -41 118 -84 358 219 784 633 889 205 51 508 64 683 29z m8502
-354 c-4 -62 -80 -273 -144 -400 -92 -184 -217 -367 -388 -571 -95 -113 -200
-228 -216 -237 -8 -5 -46 27 -106 88 -107 109 -194 183 -318 269 -47 34 -86
67 -86 75 0 8 59 64 130 123 333 279 671 504 930 620 120 53 179 76 190 73 6
-2 9 -20 8 -40z m-1752 -1418 c199 -109 442 -280 437 -306 -6 -32 -360 -285
-524 -374 -199 -110 -385 -168 -534 -168 -95 0 -120 5 -120 25 0 17 142 251
223 368 133 190 390 507 412 507 7 0 55 -23 106 -52z"/>
</g>
</svg>
